<?xml version="1.0" encoding="utf-8"?>
<!-- Generator: Adobe Illustrator 17.1.0, SVG Export Plug-In . SVG Version: 6.00 Build 0)  -->
<!DOCTYPE svg PUBLIC "-//W3C//DTD SVG 1.1//EN" "http://www.w3.org/Graphics/SVG/1.1/DTD/svg11.dtd">
<svg version="1.1" id="Layer_1" xmlns="http://www.w3.org/2000/svg" xmlns:xlink="http://www.w3.org/1999/xlink" x="0px" y="0px"
	 width="600px" height="800px" viewBox="0 0 600 800" enable-background="new 0 0 600 800" xml:space="preserve">
<g>
	<polygon points="114,157.9 117.8,157.2 114.3,157.5 	"/>
	<polygon fill="#DFDFDF" points="79.6,-177.3 69.4,-187.7 77.8,-177.4 	"/>
	<polygon points="-193.6,19.9 -198.9,44.2 -192,22.6 	"/>
	<polygon points="115.4,156 117.8,157.2 147.4,145.7 116.7,154.1 	"/>
	<polygon points="114.3,157.5 117.8,157.2 115.4,156 	"/>
	<polygon fill="#E2E2E2" points="69.4,-187.7 43.4,-206.1 70.4,-182.2 	"/>
	<polygon fill="#E0E0E0" points="75.1,-177.5 77.8,-177.4 69.4,-187.7 70.4,-182.2 	"/>
	<polygon points="-198.9,44.2 -199.8,76.2 -194.4,39.8 	"/>
	<polygon points="-191.1,24 -192,22.6 -198.9,44.2 -194.4,39.8 	"/>
	<polygon points="117.1,153.6 117,153.8 116.7,154.1 147.4,145.7 140.6,144.3 	"/>
	<polygon points="147.4,145.7 174.6,128.7 140.6,144.3 	"/>
	<polygon points="-192.4,115.2 -180.5,146.6 -194.6,108.1 	"/>
	<polygon fill="#E2E2E2" points="70.4,-182.2 43.4,-206.1 46.2,-199.1 	"/>
	<polygon fill="#E0E0E0" points="43.4,-206.1 14,-219.4 46.2,-199.1 	"/>
	<polygon fill="#ECECEC" points="75.1,-177.5 70.4,-182.2 72.8,-177.5 	"/>
	<polygon points="-194.4,39.8 -199.8,76.2 -195.1,69.6 	"/>
	<polygon fill="#383838" points="203.6,100.9 223.1,73.4 198.3,106.6 	"/>
	<polygon fill="#070707" points="-191.1,24 -194.4,39.8 -188.2,28.7 	"/>
	<polygon points="-199.8,76.2 -194.6,108.1 -195.1,69.6 	"/>
	<polygon fill="#B8B8B8" points="14,-219.4 -25.5,-228.6 -17.6,-226.7 	"/>
	<polygon points="117.1,153.6 140.6,144.3 120.7,145.7 	"/>
	<polygon points="140.6,144.3 174.6,128.7 165.9,128.3 	"/>
	<polygon fill="#ADADAD" points="-25.5,-228.6 -59.2,-229.5 -17.6,-226.7 	"/>
	<polygon fill="#1D1D1D" points="174.6,128.7 198.3,106.6 165.9,128.3 	"/>
	<polygon fill="#EDEDED" points="63.3,-177.9 68.9,-177.7 70.4,-182.2 46.2,-199.1 62.4,-177.7 	"/>
	<polygon fill="#ECECEC" points="72.8,-177.5 70.4,-182.2 68.9,-177.7 	"/>
	<polygon points="-194.6,108.1 -180.5,146.6 -183,138.4 	"/>
	<polygon fill="#E1E1E1" points="46.2,-199.1 14,-219.4 18.8,-211.4 	"/>
	<polygon points="-194.4,39.8 -195.1,69.6 -183.5,36.5 	"/>
	<polygon fill="#080808" points="-183.5,36.4 -188.2,28.7 -194.4,39.8 -183.5,36.5 	"/>
	<polygon fill="#DBDBDB" points="18.8,-211.4 14,-219.4 -17.6,-226.7 	"/>
	<polygon points="-180.5,146.6 -162.4,175.1 -183,138.4 	"/>
	<polygon points="123.3,140.1 120.7,145.7 140.6,144.3 131.3,136.9 	"/>
	<polygon points="-195.1,69.6 -194.6,108.1 -190.1,99.2 	"/>
	<polygon fill="#383838" points="198.3,106.6 223.1,73.4 217.1,80 	"/>
	<polygon fill="#101010" points="140.6,144.3 165.9,128.3 131.3,136.9 	"/>
	<polygon fill="#EDEDED" points="59.1,-177.2 62.4,-177.7 46.2,-199.1 45.2,-186.7 	"/>
	<polygon points="-190.1,99.2 -194.6,108.1 -183,138.4 	"/>
	<polygon fill="#ECECEC" points="46.2,-199.1 18.8,-211.4 45.2,-186.7 	"/>
	<polygon fill="#606060" points="223.1,73.4 236.6,42.5 217.1,80 	"/>
	<polygon fill="#1D1D1D" points="165.9,128.3 198.3,106.6 187.8,107.6 	"/>
	<polygon fill="#464646" points="-183.4,36.5 -183.5,36.4 -183.5,36.5 	"/>
	<polygon fill="#ADADAD" points="-17.6,-226.7 -59.2,-229.5 -50.1,-227.5 	"/>
	<polygon points="-183.5,36.5 -195.1,69.6 -183.9,63.1 	"/>
	<polygon fill="#1A1A1A" points="123.3,140.1 131.3,136.9 125.2,136 	"/>
	<polygon points="-195.1,69.6 -190.1,99.2 -183.9,63.1 	"/>
	<polygon fill="#404040" points="187.8,107.6 198.3,106.6 217.1,80 	"/>
	<polygon fill="#DBDBDB" points="18.8,-211.4 -17.6,-226.7 -10.7,-218.1 	"/>
	<polygon fill="#111111" points="131.3,136.9 165.9,128.3 153.8,122.4 	"/>
	<polygon fill="#E2E2E2" points="59.1,-177.2 45.2,-186.7 50.4,-175.9 	"/>
	<polygon fill="#9E9E9E" points="-59.2,-229.5 -92.4,-223.3 -50.1,-227.5 	"/>
	<polygon points="-183,138.4 -162.4,175.1 -165.5,165.8 	"/>
	<polygon fill="#292929" points="165.9,128.3 187.8,107.6 153.8,122.4 	"/>
	<polygon fill="#474747" points="-183.4,36.5 -183.4,36.5 -183.5,36.5 	"/>
	<polygon fill="#424242" points="-183.9,63.1 -174.9,48 -179.2,43.2 -183.4,36.5 -183.5,36.5 	"/>
	<polygon fill="#D1D1D1" points="-17.6,-226.7 -50.1,-227.5 -10.7,-218.1 	"/>
	<polygon fill="#ECECEC" points="45.2,-186.7 18.8,-211.4 20.7,-197.5 	"/>
	<polygon points="-190.1,99.2 -183,138.4 -179.3,127.4 	"/>
	<polygon fill="#1C1C1C" points="125.2,136 131.3,136.9 127.1,131.9 	"/>
	<polygon fill="#262626" points="127.1,131.9 131.3,136.9 153.8,122.4 131,123.5 	"/>
	<polygon points="-162.4,175.1 -138.6,199.1 -165.5,165.8 	"/>
	<polygon fill="#E8E8E8" points="20.7,-197.5 18.8,-211.4 -10.7,-218.1 	"/>
	<polygon fill="#616161" points="217.1,80 236.6,42.5 230,50.2 	"/>
	<polygon fill="#E1E1E1" points="50.4,-175.9 45.2,-186.7 41.9,-174.6 	"/>
	<polygon points="-183.9,63.1 -190.1,99.2 -179.3,89.6 	"/>
	<polygon points="-183,138.4 -165.5,165.8 -179.3,127.4 	"/>
	<polygon fill="#E1E1E1" points="41.9,-174.6 45.2,-186.7 20.7,-197.5 37.8,-174 	"/>
	<polygon fill="#404040" points="187.8,107.6 217.1,80 205.2,82.9 	"/>
	<polygon fill="#A2A2A2" points="243.1,-0.5 242.3,-34.7 243.2,9.3 	"/>
	<polygon fill="#434343" points="-167.2,56.7 -174.9,48 -183.9,63.1 -167.2,57.4 	"/>
	<polygon points="-179.3,89.6 -190.1,99.2 -179.3,127.4 	"/>
	<polygon fill="#2A2A2A" points="153.8,122.4 187.8,107.6 173.3,103.8 	"/>
	<polygon fill="#858585" points="230,50.2 236.6,42.5 243.2,9.3 	"/>
	<polygon fill="#3F3F3F" points="-183.9,63.1 -179.3,89.6 -167.2,57.4 	"/>
	<polygon fill="#9E9E9E" points="-50.1,-227.5 -92.4,-223.3 -82,-221.5 	"/>
	<polygon fill="#272727" points="133.1,115.6 131.1,123.3 131,123.5 153.8,122.4 139.5,111.5 	"/>
	<polygon fill="#808080" points="-166.8,57.1 -167.2,56.7 -167.2,57.4 	"/>
	<polygon fill="#616161" points="217.1,80 230,50.2 205.2,82.9 	"/>
	<polygon fill="#D1D1D1" points="-10.7,-218.1 -50.1,-227.5 -40.9,-218.7 	"/>
	<polygon fill="#424242" points="173.3,103.8 187.8,107.6 205.2,82.9 	"/>
	<polygon fill="#E8E8E8" points="20.7,-197.5 -10.7,-218.1 -5.7,-203.3 	"/>
	<polygon fill="#383838" points="133.1,115.6 139.5,111.5 134.4,110.7 	"/>
	<polygon fill="#3F3F3F" points="-132.1,-205.1 -160,-185.2 -123.6,-210.1 	"/>
	<polygon fill="#323232" points="153.8,122.4 173.3,103.8 139.5,111.5 	"/>
	<polygon fill="#E0E0E0" points="33.1,-173.3 37.8,-174 20.7,-197.5 19.5,-179.1 	"/>
	<polygon fill="#818181" points="-166.6,57.3 -166.8,57.1 -167.2,57.4 	"/>
	<polygon fill="#8D8D8D" points="-92.4,-223.3 -123.6,-210.1 -82,-221.5 	"/>
	<polygon fill="#BFBFBF" points="23.5,-170.6 30.7,-172.9 33.1,-173.3 19.5,-179.1 	"/>
	<polygon points="-165.5,165.8 -138.6,199.1 -142.7,188.9 	"/>
	<polygon fill="#C5C5C5" points="-50.1,-227.5 -82,-221.5 -40.9,-218.7 	"/>
	<polygon fill="#404040" points="-167.2,57.4 -179.3,89.6 -163,80.1 	"/>
	<polygon points="-179.3,127.4 -165.5,165.8 -162.9,152.8 	"/>
	<polygon fill="#DEDEDE" points="19.5,-179.1 20.7,-197.5 -5.7,-203.3 	"/>
	<polygon fill="#E1E1E1" points="-10.7,-218.1 -40.9,-218.7 -5.7,-203.3 	"/>
	<polygon points="-179.3,89.6 -179.3,127.4 -169.4,114.7 	"/>
	<polygon fill="#3A3A3A" points="134.4,110.7 139.5,111.5 135.3,107.3 	"/>
	<polygon fill="#828282" points="-163,80.1 -156,68.6 -157.6,67.3 -166.6,57.3 -167.2,57.4 	"/>
	<polygon points="-101.5,222.5 -69.3,234.3 -110.2,217.5 	"/>
	<polygon fill="#BEBEBE" points="23.5,-170.6 19.5,-179.1 17.4,-168.5 	"/>
	<polygon fill="#A2A2A2" points="243.2,9.3 242.3,-34.7 242.4,-24.6 	"/>
	<polygon fill="#333333" points="139.5,111.5 173.3,103.8 156.1,95.4 	"/>
	<polygon fill="#3F3F3F" points="-163,80.1 -179.3,89.6 -169.4,114.7 	"/>
	<polygon points="-138.6,199.1 -110.2,217.5 -142.7,188.9 	"/>
	<polygon fill="#363636" points="135.3,107.3 139.5,111.5 156.1,95.4 138.3,96 	"/>
	<polygon fill="#858585" points="230,50.2 243.2,9.3 236.2,18.4 	"/>
	<polygon fill="#424242" points="173.3,103.8 205.2,82.9 188.7,81.6 	"/>
	<polygon points="-179.3,127.4 -162.9,152.8 -169.4,114.7 	"/>
	<polygon points="-165.5,165.8 -142.7,188.9 -162.9,152.8 	"/>
	<polygon fill="#616161" points="205.2,82.9 230,50.2 217.1,55.2 	"/>
	<polygon fill="#838383" points="-156,68.6 -163,80.1 -148.8,74.3 	"/>
	<polygon fill="#DEDEDE" points="19.5,-179.1 -5.7,-203.3 -3.1,-183.9 	"/>
	<polygon fill="#BFBFBF" points="9.8,-166 17.4,-168.5 19.5,-179.1 -3.1,-183.9 	"/>
	<polygon fill="#3D3D3D" points="156.1,95.4 173.3,103.8 188.7,81.6 	"/>
	<polygon fill="#C0C0C0" points="242.3,-34.7 234,-68.1 242.4,-24.6 	"/>
	<polygon fill="#8C8C8C" points="-1.5,-161.6 -3.4,-162 -2.8,-160.9 	"/>
	<polygon fill="#373737" points="139.1,92.8 138.3,96 156.1,95.4 139.9,84.4 	"/>
	<polygon fill="#3F3F3F" points="-123.6,-210.1 -160,-185.2 -151.2,-190.3 	"/>
	<polygon fill="#E1E1E1" points="-5.7,-203.3 -40.9,-218.7 -32.6,-203.7 	"/>
	<polygon fill="#595959" points="205.2,82.9 217.1,55.2 188.7,81.6 	"/>
	<polygon fill="#8B8B8B" points="-2.8,-160.9 -3.4,-162 -3.6,-160.5 	"/>
	<polygon fill="#A6A6A6" points="236.2,18.4 243.2,9.3 242.4,-24.6 	"/>
	<polygon fill="#8D8D8D" points="-82,-221.5 -123.6,-210.1 -111.8,-208.8 	"/>
	<polygon fill="#C5C5C5" points="-40.9,-218.7 -82,-221.5 -70.4,-213 	"/>
	<polygon fill="#7F7F7F" points="217.1,55.2 230,50.2 236.2,18.4 	"/>
	<polygon fill="#404040" points="-163,80.1 -169.4,114.7 -154.4,101.6 	"/>
	<polygon fill="#838383" points="-145.1,77.3 -148.8,74.3 -163,80.1 -154.4,101.6 	"/>
	<polygon fill="#BABABA" points="-133.6,86.1 -134.7,85.5 -138.8,82.3 -135.8,89.6 	"/>
	<polygon fill="#BEBEBE" points="-3.4,-162 -1.5,-161.6 1.7,-163.3 9.8,-166 -3.1,-183.9 	"/>
	<polygon fill="#DBDBDB" points="-5.7,-203.3 -32.6,-203.7 -3.1,-183.9 	"/>
	<polygon fill="#BABABA" points="-133.6,86.1 -135.8,89.6 -131.2,87.5 	"/>
	<polygon fill="#232323" points="141.5,67.6 140.4,79.6 148.7,67.2 	"/>
	<polygon points="-169.4,114.7 -162.9,152.8 -154.7,137.3 	"/>
	<polygon fill="#292929" points="-160,-185.2 -183,-159.4 -151.2,-190.3 	"/>
	<polygon fill="#333333" points="140.1,82.7 139.9,84.4 156.1,95.4 169.1,76.2 	"/>
	<polygon fill="#3E3E3E" points="156.1,95.4 188.7,81.6 169.1,76.2 	"/>
	<polygon fill="#D9D9D9" points="-40.9,-218.7 -70.4,-213 -32.6,-203.7 	"/>
	<polygon fill="#848484" points="-135.8,89.6 -138.8,82.3 -145.1,77.3 -154.4,101.6 	"/>
	<polygon fill="#242424" points="141.5,62.9 141.7,65.3 141.5,67.6 148.7,67.2 	"/>
	<polygon points="-110.2,217.5 -69.3,234.3 -78.3,229.2 	"/>
	<polygon points="-162.9,152.8 -142.7,188.9 -141.7,174 	"/>
	<polygon fill="#7A7A7A" points="-111.8,-208.8 -123.6,-210.1 -151.2,-190.3 	"/>
	<polygon fill="#404040" points="-169.4,114.7 -154.7,137.3 -154.4,101.6 	"/>
	<polygon fill="#B7B7B7" points="-82,-221.5 -111.8,-208.8 -70.4,-213 	"/>
	<polygon points="-142.7,188.9 -110.2,217.5 -115.4,206.4 	"/>
	<polygon fill="#909090" points="-16.5,-153.7 -3.6,-160.5 -3.4,-162 -22.5,-162 	"/>
	<polygon fill="#BFBFBF" points="-3.1,-183.9 -26.3,-184.1 -3.4,-162 	"/>
	<polygon fill="#909090" points="-22.1,-150.5 -21.1,-151.3 -16.5,-153.7 -22.5,-162 	"/>
	<polygon fill="#333333" points="140.4,79.6 140.1,82.7 169.1,76.2 148.7,67.2 	"/>
	<polygon fill="#DBDBDB" points="-3.1,-183.9 -32.6,-203.7 -26.3,-184.1 	"/>
	<polygon fill="#595959" points="188.7,81.6 217.1,55.2 199.1,56.9 	"/>
	<polygon points="137.1,26.6 137.9,26.4 137,26 	"/>
	<polygon fill="#B9B9B9" points="-120.6,93.4 -131.2,87.5 -135.8,89.6 -125.1,105.5 	"/>
	<polygon points="-162.9,152.8 -141.7,174 -154.7,137.3 	"/>
	<polygon points="-69.3,234.3 -35,238.8 -78.3,229.2 	"/>
	<polygon fill="#474747" points="188.7,81.6 199.1,56.9 169.1,76.2 	"/>
	<polygon fill="#BABABA" points="-113.3,97.2 -114,97 -120.6,93.4 -125.1,105.5 	"/>
	<polygon fill="#C0C0C0" points="242.4,-24.6 234,-68.1 234.1,-57.6 	"/>
	<polygon fill="#838383" points="-154.4,101.6 -141.7,120.9 -135.8,89.6 	"/>
	<polygon fill="#7F7F7F" points="217.1,55.2 236.2,18.4 222.8,25.8 	"/>
	<polygon fill="#6B6B6B" points="-49.2,-129 -50.5,-130.2 -50.1,-128.2 	"/>
	<polygon points="137.4,29.3 137.9,26.4 137.1,26.6 	"/>
	<polygon fill="#BFBFBF" points="-3.4,-162 -26.3,-184.1 -22.5,-162 	"/>
	<polygon points="-142.7,188.9 -115.4,206.4 -141.7,174 	"/>
	<polygon points="-115.4,206.4 -110.2,217.5 -78.3,229.2 	"/>
	<polygon fill="#A6A6A6" points="236.2,18.4 242.4,-24.6 235.4,-14 	"/>
	<polygon fill="#404040" points="-154.4,101.6 -154.7,137.3 -141.7,120.9 	"/>
	<polygon fill="#121212" points="141.5,62.9 148.7,67.2 155.9,49.6 140.8,53.1 	"/>
	<polygon fill="#121212" points="140.1,44 140.8,53.1 155.9,49.6 139.9,43.2 	"/>
	<polygon fill="#D9D9D9" points="-32.6,-203.7 -70.4,-213 -58.9,-198.5 	"/>
	<polygon fill="#C9C9C9" points="-82.7,108.5 -83.1,111.1 -80.8,108.9 	"/>
	<polygon fill="#6B6B6B" points="-44.9,-132.8 -50.5,-130.2 -49.2,-129 	"/>
	<polygon fill="#D8D8D8" points="-32.6,-203.7 -58.9,-198.5 -26.3,-184.1 	"/>
	<polygon fill="#6C6C6C" points="199.1,56.9 217.1,55.2 222.8,25.8 	"/>
	<polygon fill="#2F2F2F" points="169.1,76.2 178,55 148.7,67.2 	"/>
	<polygon fill="#848484" points="-135.8,89.6 -141.7,120.9 -125.1,105.5 	"/>
	<polygon fill="#D7D7D7" points="234,-68.1 218.3,-99 234.1,-57.6 	"/>
	<polygon fill="#979797" points="-22.1,-150.5 -22.5,-162 -41.1,-158.1 -28.1,-145.8 	"/>
	<polygon points="-202.6,-120.2 -212.2,-87.2 -199.7,-129 	"/>
	<polygon points="133,11.2 133.8,13.1 137.1,11.6 132.8,10.5 	"/>
	<polygon fill="#969696" points="-35.8,-139.7 -28.1,-145.8 -41.1,-158.1 -37.2,-138.6 	"/>
	<polygon fill="#B7B7B7" points="132.8,10.5 131.8,10.2 133,11.2 	"/>
	<polygon fill="#C9C9C9" points="-88.9,106.9 -94.7,104.1 -83.1,111.1 -82.7,108.5 	"/>
	<polygon fill="#292929" points="-151.2,-190.3 -183,-159.4 -173.8,-164.9 	"/>
	<polygon fill="#474747" points="169.1,76.2 199.1,56.9 178,55 	"/>
	<polygon fill="#B7B7B7" points="-70.4,-213 -111.8,-208.8 -97.9,-201.2 	"/>
	<polygon fill="#C9C9C9" points="131.8,10.2 130.5,9.9 132.8,13.6 133.8,13.1 133,11.2 	"/>
	<polygon fill="#999999" points="222.8,25.8 236.2,18.4 235.4,-14 	"/>
	<polygon fill="#C0C0C0" points="242.4,-24.6 234.1,-57.6 235.4,-14 	"/>
	<polygon fill="#7A7A7A" points="-111.8,-208.8 -151.2,-190.3 -138.1,-189.9 	"/>
	<polygon fill="#7A7A7A" points="-60.3,-115.7 -58.2,-118.8 -62.2,-121.3 	"/>
	<polygon fill="#2F2F2F" points="148.7,67.2 178,55 155.9,49.6 	"/>
	<polygon points="-154.7,137.3 -141.7,174 -135.8,156.1 	"/>
	<polygon fill="#C1C1C1" points="-26.3,-184.1 -48.7,-179.5 -22.5,-162 	"/>
	<polygon fill="#B5B5B5" points="-113.3,97.2 -125.1,105.5 -111.5,118.6 -108,98.8 	"/>
	<polygon points="133.8,13.1 132.8,13.6 136.2,19.2 137,26 137.9,26.4 137.1,11.6 	"/>
	<polygon fill="#B5B5B5" points="-101.3,100.8 -108,98.8 -111.5,118.6 -96,103.4 	"/>
	<polygon fill="#E4E4E4" points="0.8,0.5 -0.6,0.9 0.3,2.5 	"/>
	<polygon fill="#434343" points="-154.7,137.3 -135.8,156.1 -141.7,120.9 	"/>
	<polygon fill="#D0D0D0" points="-70.4,-213 -97.9,-201.2 -58.9,-198.5 	"/>
	<polygon fill="#B7B7B7" points="-69.4,111.1 -69.3,115.6 -66.1,111.6 	"/>
	<polygon points="8.5,233.7 41.3,223 -0.3,235.5 	"/>
	<polygon fill="#D8D8D8" points="-26.3,-184.1 -58.9,-198.5 -48.7,-179.5 	"/>
	<polygon fill="#131313" points="-183,-159.4 -199.7,-129 -173.8,-164.9 	"/>
	<polygon fill="#7A7A7A" points="-58.2,-118.8 -53.9,-125 -50.1,-128.2 -50.5,-130.2 -62.2,-121.3 	"/>
	<polygon points="139.2,39.7 139.9,43.2 155.9,49.6 159.1,31 	"/>
	<polygon fill="#C1C1C1" points="-22.5,-162 -48.7,-179.5 -41.1,-158.1 	"/>
	<polygon fill="#EAEAEA" points="-0.6,0.9 -2,1.3 0.1,3.3 0.3,2.5 	"/>
	<polygon points="137.4,29.3 138.2,35.2 139.2,39.7 159.1,31 137.9,26.4 	"/>
	<polygon points="-141.7,174 -115.4,206.4 -116.6,190.1 	"/>
	<polygon fill="#828282" points="-141.7,120.9 -125.3,136.9 -125.1,105.5 	"/>
	<polygon points="-78.3,229.2 -35,238.8 -44.5,233.6 	"/>
	<polygon points="128.9,-2.7 128.9,-2.7 129.1,0.6 133.1,-2.3 	"/>
	<polygon fill="#A8A8A8" points="-97.9,-201.2 -111.8,-208.8 -138.1,-189.9 	"/>
	<polygon points="-65.8,111.3 -69.5,109.3 -69.4,111.1 -66.1,111.6 	"/>
	<polygon points="-4.5,-1 -2,1.3 -0.6,0.9 0.8,0.5 1.9,-4 0.4,-4 	"/>
	<polygon fill="#6C6C6C" points="199.1,56.9 222.8,25.8 204,30.7 	"/>
	<polygon fill="#666666" points="-151.2,-190.3 -173.8,-164.9 -138.1,-189.9 	"/>
	<polygon fill="#4F4F4F" points="178,55 199.1,56.9 204,30.7 	"/>
	<polygon points="-115.4,206.4 -78.3,229.2 -85,217.5 	"/>
	<polygon points="-108,98.8 -101.3,100.8 -106,98.6 -114,97 -113.3,97.2 	"/>
	<polygon fill="#B7B7B7" points="-69.4,111.1 -69.5,109.3 -76.9,105.3 -78.5,109.5 -80.8,108.9 -83.1,111.1 -69.3,115.6 	"/>
	<polygon points="-80.8,108.9 -78.5,109.5 -76.9,105.3 -88.9,106.9 -82.7,108.5 	"/>
	<polygon fill="#0C0C0C" points="2,-4.5 0.4,-4 1.9,-4 	"/>
	<polygon fill="#8A8A8A" points="-69.4,-106.7 -68.7,-108.6 -68.1,-109.1 -71.2,-110.3 	"/>
	<polygon fill="#9F9F9F" points="-44.9,-132.8 -43.8,-133.7 -38.5,-137.6 -58.1,-150.3 -50.5,-130.2 	"/>
	<polygon fill="#9F9F9F" points="-37.2,-138.6 -41.1,-158.1 -58.1,-150.3 -38.5,-137.6 	"/>
	<polygon fill="#050505" points="-141.7,174 -116.6,190.1 -135.8,156.1 	"/>
	<polygon fill="#434343" points="-141.7,120.9 -135.8,156.1 -125.3,136.9 	"/>
	<polygon fill="#828282" points="-125.1,105.5 -125.3,136.9 -111.5,118.6 	"/>
	<polygon fill="#DBDBDB" points="190.2,-132.5 162.9,-153.7 196,-125.9 	"/>
	<polygon fill="#292929" points="155.9,49.6 178,55 182,32.6 	"/>
	<polygon points="129.1,0.6 129.7,8.5 130.5,9.9 131.8,10.2 132.8,10.5 137.1,11.6 133.1,-2.3 	"/>
	<polygon fill="#131313" points="-68.7,-108.6 -69.4,-106.7 -65.1,-98.1 -63.3,-99 	"/>
	<polygon points="0.4,-4 -7.1,-3.5 -4.5,-1 	"/>
	<polygon fill="#A0A0A0" points="-49.7,107.4 -50.2,107.1 -57,109.3 -55.2,116.9 	"/>
	<polygon points="-35,238.8 -0.3,235.5 -44.5,233.6 	"/>
	<polygon points="3,6.9 3.2,-4.8 2,-4.5 1.9,-4 0.8,0.5 0.3,2.5 0.1,3.3 1.7,4.8 	"/>
	<polygon fill="#999999" points="222.8,25.8 235.4,-14 221.9,-3.9 	"/>
	<polygon fill="#ADADAD" points="-94.7,104.1 -95.9,103.5 -95.7,128.3 -83.1,111.1 	"/>
	<polygon fill="#EBEBEB" points="101.6,-21.9 103.6,-22.1 101.8,-23.4 	"/>
	<polygon points="-63.3,-99 -62.3,-106.9 -68.1,-109.1 -68.7,-108.6 	"/>
	<polygon fill="#D7D7D7" points="234.1,-57.6 218.3,-99 218.6,-88 	"/>
	<polygon fill="#ADADAD" points="-96,103.4 -111.5,118.6 -95.7,128.3 -95.9,103.5 	"/>
	<polygon points="-199.7,-129 -212.2,-87.2 -209.4,-95.3 	"/>
	<polygon fill="#D4D4D4" points="-58.9,-198.5 -83.2,-187.9 -48.7,-179.5 	"/>
	<polygon fill="#D0D0D0" points="-58.9,-198.5 -97.9,-201.2 -83.2,-187.9 	"/>
	<polygon fill="#8B8B8B" points="-68.1,-109.1 -62.3,-106.9 -61.3,-114.2 -60.3,-115.7 -62.2,-121.3 -71.2,-110.3 	"/>
	<polygon points="-116.6,190.1 -115.4,206.4 -85,217.5 	"/>
	<polygon points="118.2,-14.1 122.2,-9.9 126.3,-14.4 	"/>
	<polygon fill="#292929" points="155.9,49.6 182,32.6 159.1,31 	"/>
	<polygon points="-78.3,229.2 -44.5,233.6 -85,217.5 	"/>
	<polygon fill="#C0C0C0" points="235.4,-14 234.1,-57.6 227.4,-45.3 	"/>
	<polygon fill="#4F4F4F" points="178,55 204,30.7 182,32.6 	"/>
	<polygon fill="#1F1F1F" points="-28.1,-145.8 -35.8,-139.7 -25.3,-145.1 -21.1,-151.3 -22.1,-150.5 	"/>
	<polygon fill="#E0E0E0" points="1.7,4.8 0.1,3.3 -2,1.3 -4.5,-1 -7.1,-3.5 -11.1,-3.2 	"/>
	<polygon fill="#E9E9E9" points="101.6,-21.9 105.7,-20 104.3,-21.6 103.6,-22.1 	"/>
	<polygon points="-212.2,-87.2 -214.4,-52.6 -209.4,-95.3 	"/>
	<polygon fill="#C3C3C3" points="-48.7,-179.5 -69.4,-170.3 -41.1,-158.1 	"/>
	<polygon fill="#E4E4E4" points="3,6.9 1.7,4.8 2.8,9.7 3,8.9 	"/>
	<polygon fill="#2B2B2B" points="-60.3,-115.7 -61.3,-114.2 -47.1,-122.3 -53.9,-125 -58.2,-118.8 	"/>
	<polygon fill="#7D7D7D" points="204,30.7 222.8,25.8 221.9,-3.9 	"/>
	<polygon fill="#9B9B9B" points="-74.3,-93.6 -68.1,-96.6 -77.4,-98 	"/>
	<polygon points="137.9,26.4 158.2,12.6 137.1,11.6 	"/>
	<polygon fill="#3A3A3A" points="-38.5,-137.6 -43.8,-133.7 -25.3,-145.1 -35.8,-139.7 -37.2,-138.6 	"/>
	<polygon fill="#9F9F9F" points="-57,109.3 -64.9,111.8 -65.8,111.3 -66.1,111.6 -69.3,115.6 -55.2,116.9 	"/>
	<polygon points="-50.1,-128.2 -53.9,-125 -47.1,-122.3 -43.8,-133.7 -44.9,-132.8 -49.2,-129 	"/>
	<polygon fill="#272727" points="3.2,-4.8 3,6.9 3,8.9 10.7,-7.2 	"/>
	<polygon points="137.9,26.4 159.1,31 158.2,12.6 	"/>
	<polygon points="3.2,-4.8 10.7,-7.2 11.9,-9.8 0.4,-4 2,-4.5 	"/>
	<polygon points="-70.4,-58.6 -70.2,-57.8 -69.1,-54.9 -67.3,-55.8 	"/>
	<polygon fill="#E6E6E6" points="218.3,-99 196,-125.9 218.6,-88 	"/>
	<polygon fill="#848484" points="-40.7,112.3 -41.3,112.6 -43.8,111.1 -41.8,115.1 	"/>
	<polygon fill="#C3C3C3" points="-41.1,-158.1 -69.4,-170.3 -58.1,-150.3 	"/>
	<polygon fill="#464646" points="-135.8,156.1 -113.4,170.1 -125.3,136.9 	"/>
	<polygon points="-0.3,235.5 41.3,223 33.1,224.5 	"/>
	<polygon points="122.2,-9.9 128.9,-2.7 133.1,-2.3 126.3,-14.4 	"/>
	<polygon points="2.8,9.7 2.9,10 3,8.9 	"/>
	<polygon fill="#A8A8A8" points="-97.9,-201.2 -138.1,-189.9 -121.9,-183.8 	"/>
	<polygon fill="#DCDCDC" points="116.7,0.3 128.9,-2.7 128.9,-2.7 122.2,-9.9 118.2,-14.1 118.1,-14.1 	"/>
	<polygon fill="#050505" points="-135.8,156.1 -116.6,190.1 -113.4,170.1 	"/>
	<polygon fill="#A9A9A9" points="-50.5,-130.2 -72.7,-139.3 -62.2,-121.3 	"/>
	<polygon fill="#141414" points="-173.8,-164.9 -199.7,-129 -190.2,-134.9 	"/>
	<polygon fill="#808080" points="-125.3,136.9 -106.2,148.7 -111.5,118.6 	"/>
	<polygon points="104.3,-21.6 105.7,-20 113,-16.6 117.4,-24.3 	"/>
	<polygon fill="#D4D4D4" points="-48.7,-179.5 -83.2,-187.9 -69.4,-170.3 	"/>
	<polygon points="-35.8,95.7 -41.3,112.6 -40.7,112.3 -36.7,102.1 -30.5,99.8 	"/>
	<polygon fill="#ADADAD" points="235.4,-14 227.4,-45.3 221.9,-3.9 	"/>
	<polygon points="41.3,223 71.2,205.4 33.1,224.5 	"/>
	<polygon fill="#A9A9A9" points="-50.5,-130.2 -58.1,-150.3 -72.7,-139.3 	"/>
	<polygon points="-20.1,-9.2 -14.8,-5.6 -11.1,-3.2 -7.1,-3.5 0.4,-4 -19.2,-9.7 	"/>
	<polygon fill="#D4D4D4" points="234.1,-57.6 218.6,-88 227.4,-45.3 	"/>
	<polygon points="-21,-9.9 -20.1,-9.2 -19.2,-9.7 	"/>
	<polygon fill="#E5E5E5" points="128.9,-2.7 116.7,0.3 129.7,8.5 129.1,0.6 	"/>
	<polygon fill="#B9B9B9" points="140.8,53.1 140.1,44 137.8,59.5 141.7,65.3 141.5,62.9 	"/>
	<polygon points="-67.3,-55.8 -71.7,-68.6 -71.7,-66.5 -70.4,-58.6 	"/>
	<polygon fill="#666666" points="-138.1,-189.9 -173.8,-164.9 -159.4,-165.7 	"/>
	<polygon fill="#9C9C9C" points="-68.1,-96.6 -65.1,-98.1 -69.4,-106.7 -71.2,-110.3 -77.4,-98 	"/>
	<polygon fill="#AAAAAA" points="-74,-78.8 -74.2,-85.8 -80.5,-85.2 	"/>
	<polygon fill="#C7C7C7" points="-83.2,-187.9 -97.9,-201.2 -121.9,-183.8 	"/>
	<polygon fill="#EBEBEB" points="2.9,10 2.8,9.7 1.7,4.8 -11.1,-3.2 -14.8,-5.6 2.2,19 	"/>
	<polygon fill="#808080" points="-111.5,118.6 -106.2,148.7 -95.7,128.3 	"/>
	<polygon fill="#A1A1A1" points="-83.1,111.1 -78.5,134.1 -69.3,115.6 	"/>
	<polygon points="-35.8,95.7 -46.9,104.5 -43.8,111.1 -41.3,112.6 	"/>
	<polygon points="-49.7,107.4 -49,106.2 -50.2,107.1 	"/>
	<polygon fill="#656565" points="-27.9,101.8 -30.5,99.8 -36.7,102.1 -29.7,110.5 	"/>
	<polygon fill="#A4A4A4" points="139.2,39.7 138.2,35.2 137.8,59.5 140.1,44 139.9,43.2 	"/>
	<polygon fill="#828282" points="-43.8,111.1 -46.9,104.5 -49,106.2 -49.7,107.4 -55.2,116.9 -41.8,115.1 	"/>
	<polygon fill="#545454" points="182,32.6 204,30.7 203.1,4.4 	"/>
	<polygon points="-190.2,-134.9 -199.7,-129 -209.4,-95.3 	"/>
	<polygon fill="#C5C5C5" points="130.5,9.9 129.7,8.5 129.2,27.6 136.2,19.2 132.8,13.6 	"/>
	<polygon fill="#A1A1A1" points="-83.1,111.1 -95.7,128.3 -78.5,134.1 	"/>
	<polygon fill="#DCDCDC" points="196,-125.9 162.9,-153.7 168,-147.4 	"/>
	<polygon fill="#242424" points="159.1,31 182,32.6 181,10.2 	"/>
	<polygon points="102.3,-29.8 101.8,-23.4 103.6,-22.1 104.3,-21.6 107,-31.7 	"/>
	<polygon points="-56.5,-36.3 -55,-37 -59.9,-39.7 -58.8,-38.4 	"/>
	<polygon fill="#D9D9D9" points="137.1,26.6 137,26 136.2,19.2 129.2,27.6 138.2,35.2 137.4,29.3 	"/>
	<polygon fill="#EAEAEA" points="91.9,-29.4 87.9,-31.1 82,-32.5 81,-25 	"/>
	<polygon fill="#D9D9D9" points="162.9,-153.7 131.4,-168.6 168,-147.4 	"/>
	<polygon fill="#464646" points="-125.3,136.9 -113.4,170.1 -106.2,148.7 	"/>
	<polygon fill="#7D7D7D" points="204,30.7 221.9,-3.9 203.1,4.4 	"/>
	<polygon points="-116.6,190.1 -85,217.5 -88.7,200.1 	"/>
	<polygon points="-44.5,233.6 -0.3,235.5 -10.5,230.2 	"/>
	<polygon fill="#B9B9B9" points="-71.7,-66.5 -71.7,-68.6 -73.9,-75.2 -80.7,-72.7 	"/>
	<polygon points="113,-16.6 118.1,-14.2 118.1,-14.1 118.2,-14.1 126.3,-14.4 117.4,-24.3 	"/>
	<polygon fill="#030303" points="0.4,-4 11.9,-9.8 13.2,-12.6 -19.2,-9.7 	"/>
	<polygon points="137.1,11.6 153.3,-4.7 133.1,-2.3 	"/>
	<polygon fill="#0D0D0D" points="17.8,-13 13.2,-12.6 11.9,-9.8 10.7,-7.2 3,8.9 17.2,-5.1 	"/>
	<polygon fill="#999999" points="-138.1,-189.9 -159.4,-165.7 -121.9,-183.8 	"/>
	<polygon fill="#242424" points="159.1,31 181,10.2 158.2,12.6 	"/>
	<polygon fill="#434343" points="-22.8,101.6 -19.4,103.9 -19.3,98 	"/>
	<polygon points="-131.2,87.5 -120.6,93.4 -114,97 -128.2,84.2 -134.7,85.5 -133.6,86.1 	"/>
	<polygon fill="#6C6C6C" points="17.8,-13 17.2,-5.1 25.4,-16.2 18.4,-13 	"/>
	<polygon points="158.2,12.6 153.3,-4.7 137.1,11.6 	"/>
	<polygon points="-63.8,96.9 -64.9,111.8 -57,109.3 -50.2,107.1 	"/>
	<polygon fill="#535353" points="-173.8,-164.9 -190.2,-134.9 -159.4,-165.7 	"/>
	<polygon fill="#101010" points="-113.4,170.1 -116.6,190.1 -88.7,200.1 	"/>
	<polygon fill="#0B0B0B" points="-71.5,-76.2 -59.3,-80.8 -74,-93.2 -68.9,-86.2 -74.2,-85.8 -74,-78.8 	"/>
	<polygon points="87.9,-31.1 91.9,-29.4 96.1,-31.1 95.9,-36.4 	"/>
	<polygon points="-85,217.5 -44.5,233.6 -53,221.4 	"/>
	<polygon fill="#ACACAC" points="-80.5,-85.2 -74.2,-85.8 -68.9,-86.2 -74,-93.2 -74.4,-93.6 -74.3,-93.6 -77.4,-98 	"/>
	<polygon fill="#C5C5C5" points="-70.4,-58.6 -71.7,-66.5 -78.5,-61.1 -70.2,-57.8 	"/>
	<polygon fill="#E2E2E2" points="81,-25 101.6,-21.9 101.8,-23.4 102.3,-29.8 96.2,-27.4 96.1,-31.1 91.9,-29.4 	"/>
	<polygon fill="#C7C7C7" points="-58.1,-150.3 -69.4,-170.3 -87.3,-157 	"/>
	<polygon fill="#B4B4B4" points="-62.2,-121.3 -84.1,-125.6 -71.2,-110.3 	"/>
	<polygon points="-209.4,-95.3 -214.4,-52.6 -211.5,-60 	"/>
	<polygon points="-214.4,-52.6 -209.2,-18.2 -211.5,-60 	"/>
	<polygon fill="#D1D1D1" points="-69.4,-170.3 -83.2,-187.9 -104.3,-172.4 	"/>
	<polygon fill="#121212" points="3,8.9 2.9,10 2.2,19 4.6,22.3 17.2,-5.1 	"/>
	<polygon fill="#1F1F1F" points="-12.4,90.7 -16,94.5 -11.1,95.7 	"/>
	<polygon fill="#626262" points="-29.7,110.5 -36.7,102.1 -40.7,112.3 -41.8,115.1 	"/>
	<polygon points="-64.9,111.8 -63.8,96.9 -76.9,105.3 -69.5,109.3 -65.8,111.3 	"/>
	<polygon points="-10.5,230.2 -0.3,235.5 33.1,224.5 	"/>
	<polygon points="82,-32.5 87.9,-31.1 84.8,-38.8 82.4,-36 	"/>
	<polygon points="-106,98.6 -128.2,84.2 -114,97 	"/>
	<polygon points="-19.2,-9.7 -29.3,-15.6 -21,-9.9 	"/>
	<polygon fill="#545454" points="182,32.6 203.1,4.4 181,10.2 	"/>
	<polygon points="-59.9,-39.7 -55,-37 -67.3,-55.8 -69.1,-54.9 -67.4,-50.3 -63.5,-44 	"/>
	<polygon fill="#CFCFCF" points="-69.1,-54.9 -70.2,-57.8 -74.4,-50.7 -67.4,-50.3 	"/>
	<polygon points="-9.8,87.3 -4.8,86.7 -7.4,82.9 	"/>
	<polygon fill="#E9E9E9" points="4.1,23.3 4.6,22.3 2.2,19 -14.8,-5.6 -9.9,13 	"/>
	<polygon fill="#C7C7C7" points="-83.2,-187.9 -121.9,-183.8 -104.3,-172.4 	"/>
	<polygon points="-59.3,-80.8 -63.3,-99 -65.1,-98.1 -68.1,-96.6 -74.3,-93.6 -74.4,-93.6 -74,-93.2 	"/>
	<polygon fill="#C7C7C7" points="-58.1,-150.3 -87.3,-157 -72.7,-139.3 	"/>
	<polygon fill="#D7D7D7" points="-63.5,-44 -67.4,-50.3 -68.7,-41.5 	"/>
	<polygon fill="#B4B4B4" points="-72.7,-139.3 -84.1,-125.6 -62.2,-121.3 	"/>
	<polygon points="-3.4,75.6 -5.8,79.9 -0.2,76.9 	"/>
	<polygon points="104.3,-21.6 117.4,-24.3 107,-31.7 	"/>
	<polygon fill="#DDDDDD" points="-58.8,-38.4 -59.9,-39.7 -63.5,-44 -61.8,-33.8 -61,-34.2 	"/>
	<polygon fill="#D3D3D3" points="63,-37.7 65.1,-32.3 59.5,-30.7 58.5,-23 77.2,-35.6 73.8,-39 72.3,-33.2 	"/>
	<polygon points="3.4,66.1 0.7,66.7 -0.1,69.6 -0.1,69.6 	"/>
	<polygon fill="#ECECEC" points="-14.8,-5.6 -20.1,-9.2 -21,-9.9 -29.3,-15.6 -30.8,-16.5 -9.9,13 	"/>
	<polygon fill="#ADADAD" points="221.9,-3.9 227.4,-45.3 214.4,-32.5 	"/>
	<polygon fill="#E6E6E6" points="218.6,-88 196,-125.9 196.6,-114.3 	"/>
	<polygon points="59.5,-30.7 65.1,-32.3 59.9,-33.3 	"/>
	<polygon fill="#919191" points="-69.3,115.6 -60.9,135.7 -55.2,116.9 	"/>
	<polygon fill="#4E4E4E" points="-2.8,-160.9 -3.6,-160.5 -16.5,-153.7 -21.1,-151.3 0.5,-157 1.7,-163.3 -1.5,-161.6 	"/>
	<polygon fill="#2A2A2A" points="-23.5,78.6 -24.8,100.2 -22.8,101.6 -19.3,98 -19.3,93.6 -16,94.5 -12.4,90.7 -13.1,87.7 
		-12.6,87.6 	"/>
	<polygon points="-76.9,105.3 -95.3,93.5 -88.9,106.9 	"/>
	<polygon fill="#E1E1E1" points="-56.5,-36.3 -58.8,-38.4 -57.7,-35.8 	"/>
	<polygon fill="#E1E1E1" points="-53.6,-25.9 -52.9,-24.3 -52.9,-25.7 	"/>
	<polygon points="-95.9,103.5 -94.7,104.1 -88.9,106.9 -95.3,93.5 -106,98.6 -101.3,100.8 -96,103.4 	"/>
	<polygon fill="#A8A8A8" points="37,-21.6 36.4,-16.1 46.2,-25.6 	"/>
	<polygon fill="#A8A8A8" points="55.1,-34.2 51.6,-34.9 53.9,-33.1 	"/>
	<polygon points="2.8,58.8 6.5,53.4 3.8,55.2 	"/>
	<polygon fill="#1D1D1D" points="71.2,205.4 96.8,181.8 63.5,206.3 	"/>
	<polygon points="-61.8,-33.8 -61.7,-33 -61,-34.2 	"/>
	<polygon points="-57.7,-35.8 -53.6,-25.9 -52.9,-25.7 -52.6,-32.8 -43.8,-26.1 -43.2,-25.7 -55,-37 -56.5,-36.3 	"/>
	<polygon points="-85,217.5 -53,221.4 -88.7,200.1 	"/>
	<polygon fill="#BBBBBB" points="-73.9,-75.2 -74,-75.3 -71.5,-76.2 -74,-78.8 -80.5,-85.2 -80.7,-72.7 	"/>
	<polygon fill="#7B7B7B" points="-95.7,128.3 -106.2,148.7 -85.2,155.9 	"/>
	<polygon fill="#D5D5D5" points="4.1,23.3 -9.9,13 0.8,36.4 1.5,29 	"/>
	<polygon points="38.2,-30.7 47.5,-26.8 51.1,-30.3 	"/>
	<polygon fill="#1D1D1D" points="18.4,-13 25.4,-16.2 28.3,-20.2 0.6,-17.8 	"/>
	<polygon fill="#8A8A8A" points="221.9,-3.9 214.4,-32.5 203.1,4.4 	"/>
	<polygon points="33.1,224.5 71.2,205.4 63.5,206.3 	"/>
	<polygon fill="#E5E5E5" points="-41.6,-14 -43.8,-26.1 -52.6,-32.8 	"/>
	<polygon points="-44.5,233.6 -10.5,230.2 -53,221.4 	"/>
	<polygon fill="#D4D4D4" points="227.4,-45.3 218.6,-88 212.6,-74 	"/>
	<polygon points="3.7,42.7 5.2,45.9 9.9,37.1 	"/>
	<polygon points="13.8,16.7 1.5,29 0.8,36.4 2.6,40.3 	"/>
	<polygon fill="#919191" points="-78.5,134.1 -60.9,135.7 -69.3,115.6 	"/>
	<polygon fill="#494949" points="-106.2,148.7 -113.4,170.1 -88.8,178.8 	"/>
	<polygon fill="#3F3F3F" points="-24.8,100.2 -25.1,103.9 -27.9,101.8 -29.7,110.5 -19.4,103.9 -22.8,101.6 	"/>
	<polygon points="13.2,-12.6 17.8,-13 18.4,-13 0.6,-17.8 -19.2,-9.7 	"/>
	<polygon fill="#191919" points="32.2,-25.6 21.1,-25 29.9,-22.4 	"/>
	<polygon fill="#191919" points="37.5,-25.9 37,-21.6 46.2,-25.6 47.1,-26.4 	"/>
	<polygon fill="#E9E9E9" points="-26.9,-1.2 -30.9,-16.6 -38.4,-21.1 -43.2,-25.7 -43.8,-26.1 	"/>
	<polygon points="126.3,-14.4 133.1,-2.3 144.8,-20 	"/>
	<polygon fill="#D1D1D1" points="-69.4,-170.3 -104.3,-172.4 -87.3,-157 	"/>
	<polygon fill="#7B7B7B" points="-95.7,128.3 -85.2,155.9 -78.5,134.1 	"/>
	<polygon fill="#ECECEC" points="196.6,-114.3 196,-125.9 168,-147.4 	"/>
	<polygon points="96.1,-31.1 96.2,-27.4 102.3,-29.8 107,-31.7 95.9,-36.4 	"/>
	<polygon fill="#575757" points="-25.3,-145.1 0.5,-157 -21.1,-151.3 	"/>
	<polygon fill="#ECECEC" points="101.6,-21.9 98.3,-4.4 118.1,-14.2 113,-16.6 105.7,-20 	"/>
	<polygon fill="#555555" points="37,-21.6 37.5,-25.9 32.2,-25.6 29.9,-22.4 35.4,-20.8 28.3,-20.2 25.4,-16.2 17.2,-5.1 
		36.4,-16.1 	"/>
	<polygon fill="#2B2B2B" points="-45.3,-106.5 -61.3,-114.2 -62.3,-106.9 -63.3,-99 	"/>
	<polygon fill="#AEAEAE" points="140.1,82.7 140.4,79.6 141.5,67.6 141.7,65.3 133.9,89.2 139.1,92.8 139.9,84.4 	"/>
	<polygon fill="#CECECE" points="131.4,-168.6 97.6,-176.7 135.8,-162.4 	"/>
	<polygon fill="#101010" points="-113.4,170.1 -88.7,200.1 -88.8,178.8 	"/>
	<polygon fill="#404040" points="-23.5,78.6 -35.8,95.7 -30.5,99.8 -27.9,101.8 -25.1,103.9 -24.8,100.2 	"/>
	<polygon fill="#C8C8C8" points="-71.7,-66.5 -80.7,-72.7 -78.5,-61.1 	"/>
	<polygon fill="#C5C5C5" points="58.5,-23 81,-25 82,-32.5 82.4,-36 79.8,-32.9 77.2,-35.6 	"/>
	<polygon points="4.6,22.3 4.1,23.3 1.5,29 13.8,16.7 17.2,-5.1 	"/>
	<polygon fill="#1E1E1E" points="181,10.2 175.2,-11 158.2,12.6 	"/>
	<polygon fill="#BFBFBF" points="-77.4,-98 -71.2,-110.3 -91.9,-110.1 	"/>
	<polygon points="153.3,-4.7 144.8,-20 133.1,-2.3 	"/>
	<polygon points="-190.2,-134.9 -209.4,-95.3 -199.5,-101.8 	"/>
	<polygon fill="#1C1C1C" points="-16,94.5 -19.3,93.6 -19.3,98 -19.4,103.9 -11.1,95.7 	"/>
	<polygon fill="#999999" points="-121.9,-183.8 -159.4,-165.7 -141.2,-161.5 	"/>
	<polygon fill="#DADADA" points="168,-147.4 131.4,-168.6 135.8,-162.4 	"/>
	<polygon points="-61.3,-114.2 -45.3,-106.5 -47.1,-122.3 	"/>
	<polygon points="95.9,-36.4 84.8,-38.8 87.9,-31.1 	"/>
	<polygon points="-31,-16.8 -30.8,-16.5 -29.3,-15.6 -19.2,-9.7 0.6,-17.8 -38.4,-21.1 -30.9,-16.6 	"/>
	<polygon fill="#707070" points="-8.5,81.4 -5.8,79.9 -3.4,75.6 -5.4,74.8 -0.1,69.6 -0.1,69.6 -2.6,67.5 -3.2,67.6 -2.9,67.2 
		-14.4,57.5 -11,87.4 -9.8,87.3 -7.4,82.9 	"/>
	<polygon fill="#1E1E1E" points="158.2,12.6 175.2,-11 153.3,-4.7 	"/>
	<polygon fill="#D1D1D1" points="-70.2,-57.8 -78.5,-61.1 -74.4,-50.7 	"/>
	<polygon fill="#AAAAAA" points="-0.8,67.1 -0.1,69.6 0.7,66.7 	"/>
	<polygon fill="#AAAAAA" points="2.8,58.8 3.8,55.2 -1.7,58.7 4.8,46.6 2,44.3 -0.2,46.3 1.1,43.6 -9.8,34.8 -1.4,64.9 	"/>
	<polygon points="-209.2,-18.2 -197.1,14.3 -205.9,-24.8 	"/>
	<polygon fill="#BDBDBD" points="227.4,-45.3 212.6,-74 214.4,-32.5 	"/>
	<polygon fill="#ECECEC" points="98.3,-4.4 116.7,0.3 118.1,-14.1 118.1,-14.2 	"/>
	<polygon fill="#BDBDBD" points="-121.9,-183.8 -141.2,-161.5 -104.3,-172.4 	"/>
	<polygon points="-4.8,86.7 -9.8,87.3 -11,87.4 -10.8,89.1 -12.6,87.6 -13.1,87.7 -12.4,90.7 -11.1,95.7 	"/>
	<polygon fill="#E9E9E9" points="-30.8,-16.5 -31,-16.8 -30.9,-16.6 -26.9,-1.2 -9.9,13 	"/>
	<polygon fill="#585858" points="203.1,4.4 196.3,-20.6 181,10.2 	"/>
	<polygon points="-148.8,74.3 -145.1,77.3 -138.8,82.3 -134.7,85.5 -152.2,64 -157.6,67.3 -156,68.6 	"/>
	<polygon fill="#2B2B2B" points="-43.8,-133.7 -25.3,-133 -25.3,-145.1 	"/>
	<polygon fill="#040404" points="-67.3,-55.8 -49.7,-61.6 -74,-75.3 -73.9,-75.2 -71.7,-68.6 	"/>
	<polygon fill="#494949" points="-106.2,148.7 -88.8,178.8 -85.2,155.9 	"/>
	<polygon fill="#949494" points="59.9,-33.3 55.1,-34.2 53.9,-33.1 57.5,-30.2 51.1,-30.3 47.5,-26.8 48.3,-26.5 47.1,-26.4 
		46.2,-25.6 36.4,-16.1 58.5,-23 59.5,-30.7 	"/>
	<polygon points="73.8,-39 77.2,-35.6 79.8,-32.9 82.4,-36 84.8,-38.8 	"/>
	<polygon fill="#E1E1E1" points="218.6,-88 196.6,-114.3 212.6,-74 	"/>
	<polygon fill="#444444" points="-47.1,-122.3 -25.3,-133 -43.8,-133.7 	"/>
	<polygon fill="#7E7E7E" points="-41.8,115.1 -55.2,116.9 -43.9,133.5 	"/>
	<polygon fill="#D7D7D7" points="-68.7,-41.5 -67.4,-50.3 -74.4,-50.7 	"/>
	<polygon points="-0.2,76.9 -5.8,79.9 -8.5,81.4 -7.4,82.9 -4.8,86.7 	"/>
	<polygon fill="#535353" points="-159.4,-165.7 -190.2,-134.9 -174.8,-137.2 	"/>
	<polygon points="72.3,-33.2 73.8,-39 63,-37.7 	"/>
	<polygon points="-209.4,-95.3 -211.5,-60 -199.5,-101.8 	"/>
	<polygon fill="#DBDBDB" points="-61.7,-33 -61.8,-33.8 -63.5,-44 -68.7,-41.5 	"/>
	<polygon fill="#C0C0C0" points="-84.1,-125.6 -91.9,-110.1 -71.2,-110.3 	"/>
	<polygon points="3.4,66.1 -0.1,69.6 -5.4,74.8 -3.4,75.6 -0.2,76.9 	"/>
	<polygon fill="#A3A3A3" points="137.8,59.5 133.9,89.2 141.7,65.3 	"/>
	<polygon points="51.6,-34.9 55.1,-34.2 59.9,-33.3 65.1,-32.3 63,-37.7 	"/>
	<polygon points="28.3,-20.2 35.4,-20.8 29.9,-22.4 21.1,-25 0.6,-17.8 	"/>
	<polygon fill="#DEDEDE" points="-52.9,-24.3 -53.6,-25.9 -57.7,-35.8 -58.8,-38.4 -61,-34.2 -61.7,-33 	"/>
	<polygon points="6.5,53.4 2.8,58.8 -1.4,64.9 -0.8,67.1 0.7,66.7 3.4,66.1 	"/>
	<polygon points="-2.9,67.2 -3.2,67.6 -2.6,67.5 	"/>
	<polygon points="38.2,-30.7 51.1,-30.3 57.5,-30.2 53.9,-33.1 51.6,-34.9 	"/>
	<polygon fill="#DBDBDB" points="1.1,43.6 2.6,40.3 0.8,36.4 -9.9,13 -9.8,34.8 	"/>
	<polygon fill="#DBDBDB" points="3.7,42.7 2,44.3 4.8,46.6 5.2,45.9 	"/>
	<polygon fill="#494949" points="115.4,156 116.7,154.1 117,153.8 89.6,182 96.8,181.8 114,157.9 114.3,157.5 	"/>
	<polygon fill="#CBCBCB" points="-87.3,-157 -101.4,-140.3 -72.7,-139.3 	"/>
	<polygon points="9.9,37.1 13.8,16.7 2.6,40.3 1.1,43.6 -0.2,46.3 2,44.3 3.7,42.7 	"/>
	<polygon points="-211.5,-60 -209.2,-18.2 -205.9,-24.8 	"/>
	<polygon fill="#E1E1E1" points="-41.6,-14 -52.6,-32.8 -52.9,-25.7 -52.9,-24.3 	"/>
	<polygon points="9.9,37.1 5.2,45.9 4.8,46.6 -1.7,58.7 3.8,55.2 6.5,53.4 	"/>
	<polygon fill="#8A8A8A" points="203.1,4.4 214.4,-32.5 196.3,-20.6 	"/>
	<polygon fill="#E5E5E5" points="-41.6,-14 -26.9,-1.2 -43.8,-26.1 	"/>
	<polygon points="38.2,-30.7 21.1,-25 32.2,-25.6 37.5,-25.9 47.1,-26.4 48.3,-26.5 47.5,-26.8 	"/>
	<polygon fill="#797979" points="17.4,-168.5 9.8,-166 1.7,-163.3 31.5,-166.6 30.7,-172.9 23.5,-170.6 	"/>
	<polygon points="117.4,-24.3 126.3,-14.4 133.4,-32.6 	"/>
	<polygon fill="#CBCBCB" points="-72.7,-139.3 -101.4,-140.3 -84.1,-125.6 	"/>
	<polygon fill="#595959" points="17.2,-5.1 13.8,16.7 36.4,-16.1 	"/>
	<polygon points="-10.5,230.2 33.1,224.5 22.2,219.2 	"/>
	<polygon fill="#BABABA" points="75.1,-177.5 72.8,-177.5 68.9,-177.7 63.3,-177.9 101.1,-170.5 97.6,-176.7 79.6,-177.3 
		77.8,-177.4 	"/>
	<polygon fill="#7D7D7D" points="-60.9,135.7 -43.9,133.5 -55.2,116.9 	"/>
	<polygon points="-88.7,200.1 -53,221.4 -59.5,203.5 	"/>
	<polygon points="-35.8,95.7 -50.9,82.3 -50.2,107.1 -49,106.2 -46.9,104.5 	"/>
	<polygon fill="#959595" points="134.4,110.7 135.3,107.3 138.3,96 139.1,92.8 125,121.4 131.1,123.3 133.1,115.6 	"/>
	<polygon points="-49.7,-61.6 -59.3,-80.8 -71.5,-76.2 -74,-75.3 	"/>
	<polygon fill="#E1E1E1" points="116.7,0.3 113.8,22.1 129.7,8.5 	"/>
	<polygon fill="#585858" points="181,10.2 196.3,-20.6 175.2,-11 	"/>
	<polygon fill="#CFCFCF" points="-104.3,-172.4 -121.1,-152.8 -87.3,-157 	"/>
	<polygon fill="#828282" points="-14.4,57.5 -23.5,78.6 -12.6,87.6 -10.8,89.1 -11,87.4 	"/>
	<polygon fill="#CACACA" points="-80.5,-85.2 -77.4,-98 -95.9,-93.8 	"/>
	<polygon points="-191.1,24 -188.2,28.7 -183.5,36.4 -183.4,36.5 -183.4,36.5 -179.2,43.2 -193.3,8.5 -197.1,14.3 -193.6,19.9 
		-192,22.6 	"/>
	<polygon points="-128.2,84.2 -152.2,64 -134.7,85.5 	"/>
	<polygon fill="#1D1D1D" points="-88.7,200.1 -59.5,203.5 -88.8,178.8 	"/>
	<polygon fill="#1F1F1F" points="63.5,206.3 96.8,181.8 89.6,182 	"/>
	<polygon fill="#8A8A8A" points="-159.4,-165.7 -174.8,-137.2 -141.2,-161.5 	"/>
	<polygon points="-43.2,-25.7 -38.4,-21.1 -18,-28.2 -55,-37 	"/>
	<polygon points="-167.2,56.7 -166.8,57.1 -166.6,57.3 -157.6,67.3 -174.8,38.5 -179.2,43.2 -174.9,48 	"/>
	<polygon fill="#0A0A0A" points="33.1,224.5 63.5,206.3 22.2,219.2 	"/>
	<polygon fill="#727272" points="123.3,140.1 125.2,136 127.1,131.9 131,123.5 131.1,123.3 110.2,153.1 117,153.8 117.1,153.6 
		120.7,145.7 	"/>
	<polygon points="-67.3,-55.8 -55,-37 -35.4,-43.4 	"/>
	<polygon fill="#747474" points="-85.2,155.9 -63.6,158.1 -78.5,134.1 	"/>
	<polygon fill="#9E9E9E" points="59.1,-177.2 50.4,-175.9 41.9,-174.6 37.8,-174 33.1,-173.3 30.7,-172.9 65.7,-171.7 63.3,-177.9 
		62.4,-177.7 	"/>
	<polygon fill="#414141" points="-174.8,-137.2 -190.2,-134.9 -199.5,-101.8 	"/>
	<polygon fill="#D9D9D9" points="138.2,35.2 126.8,54 137.8,59.5 	"/>
	<polygon points="-53,221.4 -10.5,230.2 -20.8,218 	"/>
	<polygon fill="#ECECEC" points="129.7,8.5 113.8,22.1 129.2,27.6 	"/>
	<polygon points="126.3,-14.4 144.8,-20 133.4,-32.6 	"/>
	<polygon fill="#B8B8B8" points="-1.4,64.9 -9.8,34.8 -14.4,57.5 -2.9,67.2 -2.6,67.5 -0.1,69.6 -0.8,67.1 	"/>
	<polygon fill="#757575" points="-78.5,134.1 -63.6,158.1 -60.9,135.7 	"/>
	<polygon points="0.6,-17.8 -18,-28.2 -38.4,-21.1 	"/>
	<polygon fill="#696969" points="-29.7,110.5 -41.8,115.1 -28.3,127.6 	"/>
	<polygon fill="#DFDFDF" points="-9.9,13 -26.9,-1.2 -9.8,34.8 	"/>
	<polygon fill="#CACACA" points="129.2,27.6 126.8,54 138.2,35.2 	"/>
	<polygon fill="#E5E5E5" points="81,-25 76.4,-4.9 101.6,-21.9 	"/>
	<polygon fill="#BDBDBD" points="-104.3,-172.4 -141.2,-161.5 -121.1,-152.8 	"/>
	<polygon fill="#1B1B1B" points="-50.9,82.3 -63.8,96.9 -50.2,107.1 	"/>
	<polygon fill="#CFCFCF" points="135.8,-162.4 97.6,-176.7 101.1,-170.5 	"/>
	<polygon fill="#EDEDED" points="196.6,-114.3 168,-147.4 169,-135.1 	"/>
	<polygon fill="#7B7B7B" points="0.5,-157 31.5,-166.6 1.7,-163.3 	"/>
	<polygon points="107,-31.7 117.4,-24.3 120,-42.1 	"/>
	<polygon fill="#CBCBCB" points="-95.9,-93.8 -77.4,-98 -91.9,-110.1 	"/>
	<polygon fill="#CECECE" points="-87.3,-157 -121.1,-152.8 -101.4,-140.3 	"/>
	<polygon fill="#4D4D4D" points="-88.8,178.8 -63.1,181.6 -85.2,155.9 	"/>
	<polygon fill="#BDBDBD" points="214.4,-32.5 212.6,-74 200.7,-58.6 	"/>
	<polygon fill="#191919" points="175.2,-11 164.8,-29.9 153.3,-4.7 	"/>
	<polygon fill="#181818" points="153.3,-4.7 164.8,-29.9 144.8,-20 	"/>
	<polygon fill="#EAEAEA" points="168,-147.4 135.8,-162.4 169,-135.1 	"/>
	<polygon fill="#1D1D1D" points="0.6,-17.8 21.1,-25 -18,-28.2 	"/>
	<polygon fill="#D4D4D4" points="-80.7,-72.7 -80.5,-85.2 -96.2,-77.5 	"/>
	<polygon points="-205.9,-24.8 -197.1,14.3 -193.3,8.5 	"/>
	<polygon fill="#939393" points="214.4,-32.5 200.7,-58.6 196.3,-20.6 	"/>
	<polygon fill="#3A3A3A" points="13.8,16.7 31.7,6.3 36.4,-16.1 	"/>
	<polygon fill="#040404" points="-53,221.4 -20.8,218 -59.5,203.5 	"/>
	<polygon fill="#919191" points="125,121.4 139.1,92.8 133.9,89.2 	"/>
	<polygon fill="#989898" points="36.4,-16.1 31.7,6.3 58.5,-23 	"/>
	<polygon fill="#676767" points="-28.3,127.6 -41.8,115.1 -43.9,133.5 	"/>
	<polygon points="-20.8,218 -10.5,230.2 22.2,219.2 	"/>
	<polygon points="-49.7,-61.6 -67.3,-55.8 -35.4,-43.4 	"/>
	<polygon fill="#515151" points="-19.4,103.9 -29.7,110.5 -14.7,118.8 	"/>
	<polygon fill="#E1E1E1" points="212.6,-74 196.6,-114.3 191.6,-98.7 	"/>
	<polygon points="-106,98.6 -118.1,76.7 -128.2,84.2 	"/>
	<polygon fill="#DBDBDB" points="76.4,-4.9 98.3,-4.4 101.6,-21.9 	"/>
	<polygon fill="#292929" points="-63.3,-99 -59.3,-80.8 -38.2,-87.8 	"/>
	<polygon fill="#4B4B4B" points="110.2,153.1 89.6,182 117,153.8 	"/>
	<polygon points="-63.8,96.9 -82.9,82.1 -76.9,105.3 	"/>
	<polygon points="-35.4,-43.4 -55,-37 -18,-28.2 	"/>
	<polygon fill="#363636" points="13.8,16.7 9.9,37.1 31.7,6.3 	"/>
	<polygon fill="#C8C8C8" points="81,-25 58.5,-23 53.3,-1.3 	"/>
	<polygon fill="#1E1E1E" points="-88.8,178.8 -59.5,203.5 -63.1,181.6 	"/>
	<polygon points="-152.2,64 -174.8,38.5 -157.6,67.3 	"/>
	<polygon points="-199.5,-101.8 -211.5,-60 -201.3,-67.2 	"/>
	<polygon points="95.9,-36.4 107,-31.7 105.3,-48.3 	"/>
	<polygon fill="#D0D0D0" points="-84.1,-125.6 -111.1,-121.2 -91.9,-110.1 	"/>
	<polygon fill="#D1D1D1" points="-101.4,-140.3 -111.1,-121.2 -84.1,-125.6 	"/>
	<polygon points="120,-42.1 117.4,-24.3 133.4,-32.6 	"/>
	<polygon fill="#4D4D4D" points="-85.2,155.9 -63.1,181.6 -63.6,158.1 	"/>
	<polygon fill="#BBBBBB" points="65.7,-171.7 101.1,-170.5 63.3,-177.9 	"/>
	<polygon points="-95.3,93.5 -118.1,76.7 -106,98.6 	"/>
	<polygon points="-76.9,105.3 -82.9,82.1 -95.3,93.5 	"/>
	<polygon fill="#9E9E9E" points="65.7,-171.7 30.7,-172.9 31.5,-166.6 	"/>
	<polygon fill="#5A5A5A" points="196.3,-20.6 184.2,-43.3 175.2,-11 	"/>
	<polygon points="-211.5,-60 -205.9,-24.8 -201.3,-67.2 	"/>
	<polygon fill="#DDDDDD" points="-78.5,-61.1 -80.7,-72.7 -93.2,-61.9 	"/>
	<polygon fill="#E7E7E7" points="-26.9,-1.2 -41.6,-14 -27,18.8 	"/>
	<polygon points="-193.3,8.5 -179.2,43.2 -174.8,38.5 	"/>
	<polygon fill="#E6E6E6" points="-26.9,-1.2 -27,18.8 -9.8,34.8 	"/>
	<polygon fill="#727272" points="110.2,153.1 131.1,123.3 125,121.4 	"/>
	<polygon fill="#454545" points="-39.7,63 -35.8,95.7 -23.5,78.6 	"/>
	<polygon fill="#8B8B8B" points="-141.2,-161.5 -174.8,-137.2 -155,-135.6 	"/>
	<polygon fill="#383838" points="-11.1,95.7 -19.4,103.9 -3.6,107.8 	"/>
	<polygon points="-63.3,-99 -38.2,-87.8 -45.3,-106.5 	"/>
	<polygon fill="#232323" points="38.2,-30.7 4.8,-35 21.1,-25 	"/>
	<polygon fill="#D6D6D6" points="-80.5,-85.2 -95.9,-93.8 -96.2,-77.5 	"/>
	<polygon fill="#B4B4B4" points="-141.2,-161.5 -155,-135.6 -121.1,-152.8 	"/>
	<polygon points="84.8,-38.8 95.9,-36.4 90,-51.4 	"/>
	<polygon fill="#BCBCBC" points="-27,18.8 -14.4,57.5 -9.8,34.8 	"/>
	<polygon fill="#121212" points="9.9,37.1 6.5,53.4 26.1,29.1 	"/>
	<polygon fill="#C7C7C7" points="212.6,-74 191.6,-98.7 200.7,-58.6 	"/>
	<polygon fill="#6D6D6D" points="-60.9,135.7 -42.5,155.4 -43.9,133.5 	"/>
	<polygon fill="#E7E7E7" points="191.6,-98.7 196.6,-114.3 169,-135.1 	"/>
	<polygon fill="#E4E4E4" points="-74.4,-50.7 -78.5,-61.1 -87.4,-47.7 	"/>
	<polygon fill="#5C5C5C" points="-25.3,-145.1 2.4,-144.3 0.5,-157 	"/>
	<polygon fill="#ECECEC" points="-41.6,-14 -52.9,-24.3 -43.5,3.1 	"/>
	<polygon fill="#6C6C6C" points="-63.6,158.1 -42.5,155.4 -60.9,135.7 	"/>
	<polygon fill="#202020" points="-4.8,86.7 -11.1,95.7 5,95.1 	"/>
	<polygon fill="#424242" points="-174.8,-137.2 -199.5,-101.8 -183.3,-106 	"/>
	<polygon fill="#121212" points="38.2,-30.7 51.6,-34.9 25.7,-41.1 	"/>
	<polygon points="21.1,-25 4.8,-35 -18,-28.2 	"/>
	<polygon fill="#4E4E4E" points="-29.7,110.5 -28.3,127.6 -14.7,118.8 	"/>
	<polygon points="73.8,-39 84.8,-38.8 74.8,-51.8 	"/>
	<polygon fill="#0C0C0C" points="22.2,219.2 63.5,206.3 51.9,201.2 	"/>
	<polygon points="6.5,53.4 3.4,66.1 21.2,49.1 	"/>
	<polygon fill="#939393" points="196.3,-20.6 200.7,-58.6 184.2,-43.3 	"/>
	<polygon fill="#EDEDED" points="-52.9,-24.3 -61.7,-33 -57.5,-10.5 	"/>
	<polygon fill="#E9E9E9" points="-68.7,-41.5 -74.4,-50.7 -79.3,-34.7 	"/>
	<polygon points="51.6,-34.9 63,-37.7 43.5,-46.1 	"/>
	<polygon fill="#5A5A5A" points="175.2,-11 184.2,-43.3 164.8,-29.9 	"/>
	<polygon fill="#373737" points="63.5,206.3 89.6,182 51.9,201.2 	"/>
	<polygon fill="#0B0B0B" points="-0.2,76.9 -4.8,86.7 11.6,81.3 	"/>
	<polygon points="3.4,66.1 -0.2,76.9 16.7,66.2 	"/>
	<polygon points="63,-37.7 73.8,-39 59.5,-49.8 	"/>
	<polygon fill="#EDEDED" points="-61.7,-33 -68.7,-41.5 -69.4,-22.6 	"/>
	<polygon fill="#7E7E7E" points="53.3,-1.3 58.5,-23 31.7,6.3 	"/>
	<polygon fill="#B5B5B5" points="76.4,-4.9 81,-25 53.3,-1.3 	"/>
	<polygon fill="#CDCDCD" points="-121.1,-152.8 -132.9,-130 -101.4,-140.3 	"/>
	<polygon fill="#878787" points="-23.5,78.6 -14.4,57.5 -31.4,41 	"/>
	<polygon points="107,-31.7 120,-42.1 105.3,-48.3 	"/>
	<polygon fill="#666666" points="-25.3,-133 2.4,-144.3 -25.3,-145.1 	"/>
	<polygon fill="#626262" points="-50.9,82.3 -35.8,95.7 -39.7,63 	"/>
	<polygon fill="#141414" points="144.8,-20 150.8,-45.8 133.4,-32.6 	"/>
	<polygon fill="#1E1E1E" points="9.9,37.1 26.1,29.1 31.7,6.3 	"/>
	<polygon fill="#E7E7E7" points="98.3,-4.4 93.4,19.3 116.7,0.3 	"/>
	<polygon fill="#494949" points="-45.3,-106.5 -21,-116.2 -47.1,-122.3 	"/>
	<polygon fill="#050505" points="-59.5,203.5 -20.8,218 -30.3,200.2 	"/>
	<polygon fill="#141414" points="164.8,-29.9 150.8,-45.8 144.8,-20 	"/>
	<polygon fill="#DFDFDF" points="-80.7,-72.7 -96.2,-77.5 -93.2,-61.9 	"/>
	<polygon fill="#2F2F2F" points="-47.1,-122.3 -21,-116.2 -25.3,-133 	"/>
	<polygon fill="#2C2C2C" points="-59.5,203.5 -30.3,200.2 -63.1,181.6 	"/>
	<polygon fill="#1F1F1F" points="4.8,-35 -35.4,-43.4 -18,-28.2 	"/>
	<polygon fill="#C9C9C9" points="137.8,59.5 121.7,84.8 133.9,89.2 	"/>
	<polygon fill="#DFDFDF" points="135.8,-162.4 101.1,-170.5 137.4,-149.7 	"/>
	<polygon fill="#ECECEC" points="-41.6,-14 -43.5,3.1 -27,18.8 	"/>
	<polygon fill="#323232" points="-199.5,-101.8 -201.3,-67.2 -183.3,-106 	"/>
	<polygon fill="#EAEAEA" points="169,-135.1 135.8,-162.4 137.4,-149.7 	"/>
	<polygon fill="#7D7D7D" points="-155,-135.6 -174.8,-137.2 -183.3,-106 	"/>
	<polygon fill="#353535" points="-19.4,103.9 -14.7,118.8 -3.6,107.8 	"/>
	<polygon fill="#CDCDCD" points="-101.4,-140.3 -132.9,-130 -111.1,-121.2 	"/>
	<polygon fill="#262626" points="-26.6,-68.2 -59.3,-80.8 -49.7,-61.6 	"/>
	<polygon fill="#D5D5D5" points="-95.9,-93.8 -91.9,-110.1 -116.2,-100.8 	"/>
	<polygon points="-20.8,218 22.2,219.2 9.9,207.5 	"/>
	<polygon fill="#B4B4B4" points="-121.1,-152.8 -155,-135.6 -132.9,-130 	"/>
	<polygon points="4.8,-35 38.2,-30.7 25.7,-41.1 	"/>
	<polygon points="95.9,-36.4 105.3,-48.3 90,-51.4 	"/>
	<polygon fill="#E8E8E8" points="116.7,0.3 93.4,19.3 113.8,22.1 	"/>
	<polygon fill="#505050" points="-63.1,181.6 -37.8,178.5 -63.6,158.1 	"/>
	<polygon fill="#CDCDCD" points="-27,18.8 -31.4,41 -14.4,57.5 	"/>
	<polygon fill="#090909" points="26.1,29.1 6.5,53.4 21.2,49.1 	"/>
	<polygon fill="#D6D6D6" points="-91.9,-110.1 -111.1,-121.2 -116.2,-100.8 	"/>
	<polygon fill="#E5E5E5" points="-78.5,-61.1 -93.2,-61.9 -87.4,-47.7 	"/>
	<polygon points="-205.9,-24.8 -193.3,8.5 -195.6,-32.8 	"/>
	<polygon fill="#C1C1C1" points="126.8,54 121.7,84.8 137.8,59.5 	"/>
	<polygon fill="#EDEDED" points="-43.5,3.1 -52.9,-24.3 -57.5,-10.5 	"/>
	<polygon points="-128.2,84.2 -142.2,55.4 -152.2,64 	"/>
	<polygon fill="#1E1E1E" points="5,95.1 -11.1,95.7 -3.6,107.8 	"/>
	<polygon points="25.7,-41.1 51.6,-34.9 43.5,-46.1 	"/>
	<polygon fill="#9F9F9F" points="-39.7,63 -23.5,78.6 -31.4,41 	"/>
	<polygon fill="#797979" points="26.1,29.1 53.3,-1.3 31.7,6.3 	"/>
	<polygon fill="#636363" points="-28.3,127.6 -43.9,133.5 -22.9,148.1 	"/>
	<polygon fill="#232323" points="-11.7,-50 -49.7,-61.6 -35.4,-43.4 	"/>
	<polygon points="74.8,-51.8 84.8,-38.8 90,-51.4 	"/>
	<polygon points="-201.3,-67.2 -205.9,-24.8 -195.6,-32.8 	"/>
	<polygon points="21.2,49.1 3.4,66.1 16.7,66.2 	"/>
	<polygon fill="#EAEAEA" points="-79.3,-34.7 -74.4,-50.7 -87.4,-47.7 	"/>
	<polygon fill="#EDEDED" points="-57.5,-10.5 -61.7,-33 -69.4,-22.6 	"/>
	<polygon fill="#C6C6C6" points="200.7,-58.6 191.6,-98.7 181.6,-80.7 	"/>
	<polygon points="43.5,-46.1 63,-37.7 59.5,-49.8 	"/>
	<polygon fill="#0B0B0B" points="11.6,81.3 -4.8,86.7 5,95.1 	"/>
	<polygon fill="#989898" points="200.7,-58.6 181.6,-80.7 184.2,-43.3 	"/>
	<polygon fill="#515151" points="-63.6,158.1 -37.8,178.5 -42.5,155.4 	"/>
	<polygon points="16.7,66.2 -0.2,76.9 11.6,81.3 	"/>
	<polygon points="59.5,-49.8 73.8,-39 74.8,-51.8 	"/>
	<polygon fill="#ECECEC" points="-69.4,-22.6 -68.7,-41.5 -79.3,-34.7 	"/>
	<polygon fill="#252525" points="22.2,219.2 51.9,201.2 9.9,207.5 	"/>
	<polygon fill="#626262" points="110.2,153.1 77.4,177.2 89.6,182 	"/>
	<polygon fill="#DCDCDC" points="113.8,22.1 109.7,49.5 129.2,27.6 	"/>
	<polygon points="-38.2,-87.8 -59.3,-80.8 -26.6,-68.2 	"/>
	<polygon fill="#616161" points="-43.9,133.5 -42.5,155.4 -22.9,148.1 	"/>
	<polygon fill="#1F1F1F" points="-30.3,200.2 -20.8,218 9.9,207.5 	"/>
	<polygon fill="#E5E5E5" points="129.2,27.6 109.7,49.5 126.8,54 	"/>
	<polygon fill="#898989" points="0.5,-157 34.1,-153.6 31.5,-166.6 	"/>
	<polygon fill="#1D1D1D" points="-50.9,82.3 -70.2,65.3 -63.8,96.9 	"/>
	<polygon fill="#E6E6E6" points="191.6,-98.7 169,-135.1 165.6,-118.1 	"/>
	<polygon fill="#2D2D2D" points="-63.1,181.6 -30.3,200.2 -37.8,178.5 	"/>
	<polygon fill="#5B5B5B" points="184.2,-43.3 167.4,-62.4 164.8,-29.9 	"/>
	<polygon fill="#101010" points="120,-42.1 133.4,-32.6 133.8,-57.8 	"/>
	<polygon points="4.8,-35 -11.7,-50 -35.4,-43.4 	"/>
	<polygon fill="#CBCBCB" points="65.7,-171.7 103.2,-157.5 101.1,-170.5 	"/>
	<polygon fill="#CECECE" points="-43.5,3.1 -31.4,41 -27,18.8 	"/>
	<polygon points="-142.2,55.4 -128.2,84.2 -118.1,76.7 	"/>
	<polygon fill="#383838" points="51.9,201.2 89.6,182 77.4,177.2 	"/>
	<polygon fill="#AEAEAE" points="133.9,89.2 112.3,117.1 125,121.4 	"/>
	<polygon fill="#D6D6D6" points="70.3,19.6 98.3,-4.4 76.4,-4.9 	"/>
	<polygon points="-174.8,38.5 -183.1,0 -193.3,8.5 	"/>
	<polygon fill="#5A5A5A" points="164.8,-29.9 167.4,-62.4 150.8,-45.8 	"/>
	<polygon fill="#DADADA" points="-96.2,-77.5 -95.9,-93.8 -116.6,-80.1 	"/>
	<polygon fill="#121212" points="133.4,-32.6 150.8,-45.8 133.8,-57.8 	"/>
	<polygon fill="#393939" points="-63.8,96.9 -70.2,65.3 -82.9,82.1 	"/>
	<polygon points="-152.2,64 -164.7,29.7 -174.8,38.5 	"/>
	<polygon fill="#8B8B8B" points="125,121.4 97.6,148.6 110.2,153.1 	"/>
	<polygon fill="#E5E5E5" points="169,-135.1 137.4,-149.7 165.6,-118.1 	"/>
	<polygon fill="#AEAEAE" points="31.5,-166.6 68.2,-158.5 65.7,-171.7 	"/>
	<polygon fill="#7D7D7D" points="-155,-135.6 -183.3,-106 -162.5,-107.3 	"/>
	<polygon fill="#ADADAD" points="-132.9,-130 -155,-135.6 -162.5,-107.3 	"/>
	<polygon fill="#B0B0B0" points="47,23 76.4,-4.9 53.3,-1.3 	"/>
	<polygon points="-26.6,-68.2 -49.7,-61.6 -11.7,-50 	"/>
	<polygon fill="#2F2F2F" points="4.8,-35 25.7,-41.1 -11.7,-50 	"/>
	<polygon fill="#CBCBCB" points="-111.1,-121.2 -132.9,-130 -139.3,-105.5 	"/>
	<polygon fill="#DFDFDF" points="137.4,-149.7 101.1,-170.5 103.2,-157.5 	"/>
	<polygon fill="#646464" points="26.1,29.1 47,23 53.3,-1.3 	"/>
	<polygon fill="#CACACA" points="181.6,-80.7 191.6,-98.7 165.6,-118.1 	"/>
	<polygon fill="#8C8C8C" points="2.4,-144.3 34.1,-153.6 0.5,-157 	"/>
	<polygon fill="#333333" points="-183.3,-106 -201.3,-67.2 -184.8,-73.4 	"/>
	<polygon fill="#585858" points="-14.7,118.8 -28.3,127.6 -5.6,136.9 	"/>
	<polygon fill="#989898" points="184.2,-43.3 181.6,-80.7 167.4,-62.4 	"/>
	<polygon fill="#010101" points="-95.3,93.5 -105.4,63.8 -118.1,76.7 	"/>
	<polygon fill="#DBDBDB" points="-95.9,-93.8 -116.2,-100.8 -116.6,-80.1 	"/>
	<polygon points="-82.9,82.1 -105.4,63.8 -95.3,93.5 	"/>
	<polygon fill="#CBCBCB" points="-111.1,-121.2 -139.3,-105.5 -116.2,-100.8 	"/>
	<polygon fill="#CECECE" points="70.3,19.6 93.4,19.3 98.3,-4.4 	"/>
	<polygon fill="#575757" points="26.1,29.1 21.2,49.1 47,23 	"/>
	<polygon fill="#0F0F0F" points="105.3,-48.3 120,-42.1 114.9,-65.9 	"/>
	<polygon points="-183.1,0 -195.6,-32.8 -193.3,8.5 	"/>
	<polygon fill="#494949" points="-38.2,-87.8 -12.7,-96.4 -45.3,-106.5 	"/>
	<polygon fill="#ABABAB" points="121.7,84.8 112.3,117.1 133.9,89.2 	"/>
	<polygon fill="#252525" points="-201.3,-67.2 -195.6,-32.8 -184.8,-73.4 	"/>
	<polygon fill="#DBDBDB" points="-31.4,41 -43.5,3.1 -49.3,23.5 	"/>
	<polygon fill="#565656" points="-28.3,127.6 -22.9,148.1 -5.6,136.9 	"/>
	<polygon fill="#DBDBDB" points="-43.5,3.1 -57.5,-10.5 -49.3,23.5 	"/>
	<polygon fill="#525252" points="-42.5,155.4 -37.8,178.5 -14,169.9 	"/>
	<polygon fill="#636363" points="-58.5,45.1 -50.9,82.3 -39.7,63 	"/>
	<polygon fill="#3B3B3B" points="-37.8,178.5 -30.3,200.2 -2.7,190.4 	"/>
	<polygon fill="#DFDFDF" points="-93.2,-61.9 -96.2,-77.5 -112.8,-60.1 	"/>
	<polygon fill="#202020" points="-30.3,200.2 9.9,207.5 -2.7,190.4 	"/>
	<polygon fill="#636363" points="77.4,177.2 110.2,153.1 97.6,148.6 	"/>
	<polygon fill="#A0A0A0" points="-49.3,23.5 -39.7,63 -31.4,41 	"/>
	<polygon fill="#262626" points="9.9,207.5 51.9,201.2 37.7,190.4 	"/>
	<polygon fill="#ADADAD" points="-132.9,-130 -162.5,-107.3 -139.3,-105.5 	"/>
	<polygon points="-142.2,55.4 -164.7,29.7 -152.2,64 	"/>
	<polygon fill="#2D2D2D" points="-45.3,-106.5 -12.7,-96.4 -21,-116.2 	"/>
	<polygon fill="#A1A1A1" points="47,23 70.3,19.6 76.4,-4.9 	"/>
	<polygon fill="#717171" points="-183.3,-106 -184.8,-73.4 -162.5,-107.3 	"/>
	<polygon fill="#2E2E2E" points="25.7,-41.1 43.5,-46.1 12,-56.7 	"/>
	<polygon fill="#4C4C4C" points="-3.6,107.8 -14.7,118.8 8.8,122.6 	"/>
	<polygon fill="#545454" points="-42.5,155.4 -14,169.9 -22.9,148.1 	"/>
	<polygon fill="#CBCBCB" points="68.2,-158.5 103.2,-157.5 65.7,-171.7 	"/>
	<polygon fill="#111111" points="120,-42.1 133.8,-57.8 114.9,-65.9 	"/>
	<polygon fill="#606060" points="-25.3,-133 7.3,-126.5 2.4,-144.3 	"/>
	<polygon fill="#AFAFAF" points="34.1,-153.6 68.2,-158.5 31.5,-166.6 	"/>
	<polygon fill="#060606" points="-11.7,-50 25.7,-41.1 12,-56.7 	"/>
	<polygon points="-164.7,29.7 -183.1,0 -174.8,38.5 	"/>
	<polygon fill="#404040" points="21.2,49.1 16.7,66.2 41.2,46.3 	"/>
	<polygon fill="#101010" points="90,-51.4 105.3,-48.3 95.1,-69.9 	"/>
	<polygon fill="#8A8A8A" points="112.3,117.1 97.6,148.6 125,121.4 	"/>
	<polygon fill="#4B4B4B" points="51.9,201.2 77.4,177.2 37.7,190.4 	"/>
	<polygon fill="#6C6C6C" points="-21,-116.2 7.3,-126.5 -25.3,-133 	"/>
	<polygon fill="#E2E2E2" points="-57.5,-10.5 -69.4,-22.6 -66.2,7.2 	"/>
	<polygon fill="#E3E3E3" points="-87.4,-47.7 -93.2,-61.9 -105.2,-41.3 	"/>
	<polygon fill="#5A5A5A" points="150.8,-45.8 167.4,-62.4 147,-77.2 	"/>
	<polygon fill="#E0E0E0" points="-96.2,-77.5 -116.6,-80.1 -112.8,-60.1 	"/>
	<polygon fill="#7D7D7D" points="-50.9,82.3 -58.5,45.1 -70.2,65.3 	"/>
	<polygon fill="#242424" points="43.5,-46.1 59.5,-49.8 34,-62.9 	"/>
	<polygon fill="#9A9A9A" points="167.4,-62.4 181.6,-80.7 158,-98.1 	"/>
	<polygon fill="#414141" points="5,95.1 -3.6,107.8 20.3,106 	"/>
	<polygon fill="#CACACA" points="181.6,-80.7 165.6,-118.1 158,-98.1 	"/>
	<polygon fill="#4D4D4D" points="47,23 21.2,49.1 41.2,46.3 	"/>
	<polygon fill="#595959" points="150.8,-45.8 147,-77.2 133.8,-57.8 	"/>
	<polygon fill="#E4E4E4" points="165.6,-118.1 137.4,-149.7 135.8,-131.6 	"/>
	<polygon fill="#3B3B3B" points="12,-56.7 -26.6,-68.2 -11.7,-50 	"/>
	<polygon fill="#373737" points="16.7,66.2 11.6,81.3 35.5,67.8 	"/>
	<polygon fill="#141414" points="74.8,-51.8 90,-51.4 74.9,-70.3 	"/>
	<polygon fill="#D9D9D9" points="93.4,19.3 88,46.5 113.8,22.1 	"/>
	<polygon fill="#3D3D3D" points="-37.8,178.5 -2.7,190.4 -14,169.9 	"/>
	<polygon fill="#E5E5E5" points="-69.4,-22.6 -79.3,-34.7 -81.3,-8.3 	"/>
	<polygon fill="#E5E5E5" points="-79.3,-34.7 -87.4,-47.7 -94.5,-24.2 	"/>
	<polygon fill="#1B1B1B" points="59.5,-49.8 74.8,-51.8 54.6,-67.7 	"/>
	<polygon fill="#393939" points="11.6,81.3 5,95.1 28.9,87.6 	"/>
	<polygon fill="#3B3B3B" points="9.9,207.5 37.7,190.4 -2.7,190.4 	"/>
	<polygon fill="#454545" points="-1.3,-75.8 -38.2,-87.8 -26.6,-68.2 	"/>
	<polygon fill="#4A4A4A" points="-14.7,118.8 -5.6,136.9 8.8,122.6 	"/>
	<polygon fill="#B4B4B4" points="-49.3,23.5 -58.5,45.1 -39.7,63 	"/>
	<polygon fill="#D1D1D1" points="126.8,54 103.6,79.8 121.7,84.8 	"/>
	<polygon fill="#DADADA" points="137.4,-149.7 103.2,-157.5 135.8,-131.6 	"/>
	<polygon fill="#E2E2E2" points="-49.3,23.5 -57.5,-10.5 -66.2,7.2 	"/>
	<polygon fill="#DADADA" points="113.8,22.1 88,46.5 109.7,49.5 	"/>
	<polygon fill="#CBCBCB" points="-139.3,-105.5 -140,-80.3 -116.2,-100.8 	"/>
	<polygon fill="#121212" points="105.3,-48.3 114.9,-65.9 95.1,-69.9 	"/>
	<polygon fill="#CBCBCB" points="-116.6,-80.1 -116.2,-100.8 -140,-80.3 	"/>
	<polygon fill="#CDCDCD" points="109.7,49.5 103.6,79.8 126.8,54 	"/>
	<polygon fill="#141414" points="12,-56.7 43.5,-46.1 34,-62.9 	"/>
	<polygon fill="#262626" points="-184.8,-73.4 -195.6,-32.8 -179.2,-41.1 	"/>
	<polygon fill="#A6A6A6" points="-162.5,-107.3 -163.6,-78 -139.3,-105.5 	"/>
	<polygon fill="#939393" points="41.2,46.3 70.3,19.6 47,23 	"/>
	<polygon fill="#727272" points="-162.5,-107.3 -184.8,-73.4 -163.6,-78 	"/>
	<polygon fill="#E3E3E3" points="-93.2,-61.9 -112.8,-60.1 -105.2,-41.3 	"/>
	<polygon fill="#1B1B1B" points="-179.2,-41.1 -195.6,-32.8 -183.1,0 	"/>
	<polygon fill="#999999" points="167.4,-62.4 158,-98.1 147,-77.2 	"/>
	<polygon fill="#3E3E3E" points="41.2,46.3 16.7,66.2 35.5,67.8 	"/>
	<polygon fill="#0A0A0A" points="-118.1,76.7 -128.6,42.3 -142.2,55.4 	"/>
	<polygon fill="#C8C8C8" points="165.6,-118.1 135.8,-131.6 158,-98.1 	"/>
	<polygon fill="#252525" points="-38.2,-87.8 -1.3,-75.8 -12.7,-96.4 	"/>
	<polygon fill="#404040" points="20.3,106 -3.6,107.8 8.8,122.6 	"/>
	<polygon fill="#181818" points="-26.6,-68.2 12,-56.7 -1.3,-75.8 	"/>
	<polygon fill="#E5E5E5" points="-66.2,7.2 -69.4,-22.6 -81.3,-8.3 	"/>
	<polygon fill="#555555" points="-14,169.9 7.2,156.4 -22.9,148.1 	"/>
	<polygon fill="#565656" points="-5.6,136.9 -22.9,148.1 7.2,156.4 	"/>
	<polygon fill="#393939" points="-70.2,65.3 -91.5,46.6 -82.9,82.1 	"/>
	<polygon fill="#151515" points="74.9,-70.3 90,-51.4 95.1,-69.9 	"/>
	<polygon fill="#BFBFBF" points="64.3,45.4 93.4,19.3 70.3,19.6 	"/>
	<polygon fill="#191919" points="34,-62.9 59.5,-49.8 54.6,-67.7 	"/>
	<polygon fill="#717171" points="97.6,148.6 61.4,167.7 77.4,177.2 	"/>
	<polygon fill="#E5E5E5" points="-94.5,-24.2 -87.4,-47.7 -105.2,-41.3 	"/>
	<polygon fill="#383838" points="35.5,67.8 11.6,81.3 28.9,87.6 	"/>
	<polygon fill="#4D4D4D" points="37.7,190.4 77.4,177.2 61.4,167.7 	"/>
	<polygon fill="#020202" points="-105.4,63.8 -128.6,42.3 -118.1,76.7 	"/>
	<polygon fill="#393939" points="28.9,87.6 5,95.1 20.3,106 	"/>
	<polygon fill="#B5B5B5" points="-49.3,23.5 -66.2,7.2 -58.5,45.1 	"/>
	<polygon fill="#E5E5E5" points="-81.3,-8.3 -79.3,-34.7 -94.5,-24.2 	"/>
	<polygon fill="#181818" points="54.6,-67.7 74.8,-51.8 74.9,-70.3 	"/>
	<polygon fill="#8B8B8B" points="2.4,-144.3 38.2,-135 34.1,-153.6 	"/>
	<polygon fill="#4A4A4A" points="-82.9,82.1 -91.5,46.6 -105.4,63.8 	"/>
	<polygon fill="#4C4C4C" points="-2.7,190.4 22.2,174.9 -14,169.9 	"/>
	<polygon fill="#A7A7A7" points="-139.3,-105.5 -163.6,-78 -140,-80.3 	"/>
	<polygon fill="#3C3C3C" points="-2.7,190.4 37.7,190.4 22.2,174.9 	"/>
	<polygon fill="#575757" points="114.9,-65.9 133.8,-57.8 123.9,-87.2 	"/>
	<polygon fill="#C8C8C8" points="68.2,-158.5 103.6,-138.7 103.2,-157.5 	"/>
	<polygon fill="#595959" points="133.8,-57.8 147,-77.2 123.9,-87.2 	"/>
	<polygon fill="#686868" points="-184.8,-73.4 -179.2,-41.1 -163.6,-78 	"/>
	<polygon fill="#B6B6B6" points="121.7,84.8 94.2,110.8 112.3,117.1 	"/>
	<polygon fill="#8B8B8B" points="70.3,19.6 41.2,46.3 64.3,45.4 	"/>
	<polygon fill="#DADADA" points="103.6,-138.7 135.8,-131.6 103.2,-157.5 	"/>
	<polygon fill="#141414" points="-164.7,29.7 -167.2,-10.4 -183.1,0 	"/>
	<polygon fill="#474747" points="12,-56.7 34,-62.9 -1.3,-75.8 	"/>
	<polygon fill="#BCBCBC" points="93.4,19.3 64.3,45.4 88,46.5 	"/>
	<polygon fill="#0F0F0F" points="-142.2,55.4 -149.8,17.6 -164.7,29.7 	"/>
	<polygon fill="#8F8F8F" points="7.3,-126.5 38.2,-135 2.4,-144.3 	"/>
	<polygon fill="#CBCBCB" points="-112.8,-60.1 -116.6,-80.1 -135.3,-55.6 	"/>
	<polygon fill="#969696" points="112.3,117.1 80.3,140.7 97.6,148.6 	"/>
	<polygon fill="#ADADAD" points="34.1,-153.6 70.6,-139.5 68.2,-158.5 	"/>
	<polygon fill="#696969" points="-12.7,-96.4 14.7,-105.4 -21,-116.2 	"/>
	<polygon fill="#7D7D7D" points="-58.5,45.1 -77.9,27 -70.2,65.3 	"/>
	<polygon fill="#989898" points="158,-98.1 131.1,-109.9 147,-77.2 	"/>
	<polygon fill="#CACACA" points="-116.6,-80.1 -140,-80.3 -135.3,-55.6 	"/>
	<polygon fill="#4D4D4D" points="-14,169.9 22.2,174.9 7.2,156.4 	"/>
	<polygon fill="#C7C7C7" points="158,-98.1 135.8,-131.6 131.1,-109.9 	"/>
	<polygon fill="#5A5A5A" points="-21,-116.2 14.7,-105.4 7.3,-126.5 	"/>
	<polygon fill="#1C1C1C" points="-167.2,-10.4 -179.2,-41.1 -183.1,0 	"/>
	<polygon fill="#585858" points="37.7,190.4 61.4,167.7 22.2,174.9 	"/>
	<polygon fill="#7A7A7A" points="41.2,46.3 35.5,67.8 64.3,45.4 	"/>
	<polygon fill="#595959" points="8.8,122.6 -5.6,136.9 25.1,138.8 	"/>
	<polygon fill="#C0C0C0" points="-58.5,45.1 -66.2,7.2 -77.9,27 	"/>
	<polygon fill="#B4B4B4" points="103.6,79.8 94.2,110.8 121.7,84.8 	"/>
	<polygon fill="#585858" points="-5.6,136.9 7.2,156.4 25.1,138.8 	"/>
	<polygon fill="#727272" points="80.3,140.7 61.4,167.7 97.6,148.6 	"/>
	<polygon fill="#C1C1C1" points="-66.2,7.2 -81.3,-8.3 -77.9,27 	"/>
	<polygon fill="#555555" points="95.1,-69.9 114.9,-65.9 99.3,-92.3 	"/>
	<polygon fill="#8C8C8C" points="-70.2,65.3 -77.9,27 -91.5,46.6 	"/>
	<polygon fill="#0D0D0D" points="-128.6,42.3 -149.8,17.6 -142.2,55.4 	"/>
	<polygon fill="#979797" points="123.9,-87.2 147,-77.2 131.1,-109.9 	"/>
	<polygon fill="#A1A1A1" points="-163.6,-78 -158.4,-49.1 -140,-80.3 	"/>
	<polygon fill="#5C5C5C" points="-1.3,-75.8 24,-83.4 -12.7,-96.4 	"/>
	<polygon fill="#C4C4C4" points="88,46.5 81.6,75 109.7,49.5 	"/>
	<polygon fill="#696969" points="-163.6,-78 -179.2,-41.1 -158.4,-49.1 	"/>
	<polygon fill="#323232" points="-1.3,-75.8 34,-62.9 24,-83.4 	"/>
	<polygon fill="#C0C0C0" points="131.1,-109.9 135.8,-131.6 103.6,-138.7 	"/>
	<polygon fill="#C8C8C8" points="70.6,-139.5 103.6,-138.7 68.2,-158.5 	"/>
	<polygon fill="#4D4D4D" points="34,-62.9 54.6,-67.7 24,-83.4 	"/>
	<polygon fill="#CACACA" points="-105.2,-41.3 -112.8,-60.1 -126,-32.3 	"/>
	<polygon fill="#C6C6C6" points="109.7,49.5 81.6,75 103.6,79.8 	"/>
	<polygon fill="#AEAEAE" points="38.2,-135 70.6,-139.5 34.1,-153.6 	"/>
	<polygon fill="#575757" points="114.9,-65.9 123.9,-87.2 99.3,-92.3 	"/>
	<polygon fill="#141414" points="-167.2,-10.4 -164.7,29.7 -149.8,17.6 	"/>
	<polygon fill="#959595" points="94.2,110.8 80.3,140.7 112.3,117.1 	"/>
	<polygon fill="#5C5C5C" points="20.3,106 8.8,122.6 39.3,118.1 	"/>
	<polygon fill="#6A6A6A" points="35.5,67.8 28.9,87.6 58,70.8 	"/>
	<polygon fill="#787878" points="64.3,45.4 35.5,67.8 58,70.8 	"/>
	<polygon fill="#525252" points="74.9,-70.3 95.1,-69.9 74.2,-92.8 	"/>
	<polygon fill="#C7C7C7" points="-81.3,-8.3 -94.5,-24.2 -96.3,8.6 	"/>
	<polygon fill="#A2A2A2" points="-135.3,-55.6 -140,-80.3 -158.4,-49.1 	"/>
	<polygon fill="#5D5D5D" points="7.2,156.4 22.2,174.9 43.3,154.4 	"/>
	<polygon fill="#CACACA" points="-112.8,-60.1 -135.3,-55.6 -126,-32.3 	"/>
	<polygon fill="#CACACA" points="-94.5,-24.2 -105.2,-41.3 -112.6,-10.9 	"/>
	<polygon fill="#505050" points="54.6,-67.7 74.9,-70.3 49,-89.5 	"/>
	<polygon fill="#616161" points="-158.4,-49.1 -179.2,-41.1 -167.2,-10.4 	"/>
	<polygon fill="#616161" points="28.9,87.6 20.3,106 50.1,95.2 	"/>
	<polygon fill="#5A5A5A" points="43.3,154.4 22.2,174.9 61.4,167.7 	"/>
	<polygon fill="#4A4A4A" points="-12.7,-96.4 24,-83.4 14.7,-105.4 	"/>
	<polygon fill="#A7A7A7" points="64.3,45.4 58,70.8 88,46.5 	"/>
	<polygon fill="#4B4B4B" points="-91.5,46.6 -112.7,26.1 -105.4,63.8 	"/>
	<polygon fill="#535353" points="-105.4,63.8 -112.7,26.1 -128.6,42.3 	"/>
	<polygon fill="#C6C6C6" points="-77.9,27 -81.3,-8.3 -96.3,8.6 	"/>
	<polygon fill="#5B5B5B" points="39.3,118.1 8.8,122.6 25.1,138.8 	"/>
	<polygon fill="#5E5E5E" points="25.1,138.8 7.2,156.4 43.3,154.4 	"/>
	<polygon fill="#757575" points="80.3,140.7 43.3,154.4 61.4,167.7 	"/>
	<polygon fill="#434343" points="24,-83.4 54.6,-67.7 49,-89.5 	"/>
	<polygon fill="#939393" points="123.9,-87.2 131.1,-109.9 102.3,-116.1 	"/>
	<polygon fill="#535353" points="74.2,-92.8 95.1,-69.9 99.3,-92.3 	"/>
	<polygon fill="#BFBFBF" points="102.3,-116.1 131.1,-109.9 103.6,-138.7 	"/>
	<polygon fill="#7F7F7F" points="7.3,-126.5 43.3,-112.8 38.2,-135 	"/>
	<polygon fill="#8D8D8D" points="-77.9,27 -96.3,8.6 -91.5,46.6 	"/>
	<polygon fill="#A7A7A7" points="88,46.5 58,70.8 81.6,75 	"/>
	<polygon fill="#6A6A6A" points="58,70.8 28.9,87.6 50.1,95.2 	"/>
	<polygon fill="#858585" points="14.7,-105.4 43.3,-112.8 7.3,-126.5 	"/>
	<polygon fill="#C9C9C9" points="-112.6,-10.9 -105.2,-41.3 -126,-32.3 	"/>
	<polygon fill="#B1B1B1" points="70.6,-139.5 102.3,-116.1 103.6,-138.7 	"/>
	<polygon fill="#C8C8C8" points="-96.3,8.6 -94.5,-24.2 -112.6,-10.9 	"/>
	<polygon fill="#616161" points="50.1,95.2 20.3,106 39.3,118.1 	"/>
	<polygon fill="#4E4E4E" points="49,-89.5 74.9,-70.3 74.2,-92.8 	"/>
	<polygon fill="#919191" points="99.3,-92.3 123.9,-87.2 102.3,-116.1 	"/>
	<polygon fill="#ADADAD" points="103.6,79.8 72.7,103.3 94.2,110.8 	"/>
	<polygon fill="#9D9D9D" points="-135.3,-55.6 -158.4,-49.1 -147.5,-21.6 	"/>
	<polygon fill="#626262" points="-147.5,-21.6 -158.4,-49.1 -167.2,-10.4 	"/>
	<polygon fill="#5C5C5C" points="-149.8,17.6 -147.5,-21.6 -167.2,-10.4 	"/>
	<polygon fill="#6E6E6E" points="24,-83.4 49,-89.5 14.7,-105.4 	"/>
	<polygon fill="#585858" points="-128.6,42.3 -131.8,3.5 -149.8,17.6 	"/>
	<polygon fill="#ACACAC" points="81.6,75 72.7,103.3 103.6,79.8 	"/>
	<polygon fill="#949494" points="-91.5,46.6 -96.3,8.6 -112.7,26.1 	"/>
	<polygon fill="#929292" points="94.2,110.8 60.1,130.1 80.3,140.7 	"/>
	<polygon fill="#9E9E9E" points="-126,-32.3 -135.3,-55.6 -147.5,-21.6 	"/>
	<polygon fill="#9C9C9C" points="38.2,-135 72.7,-116.8 70.6,-139.5 	"/>
	<polygon fill="#767676" points="60.1,130.1 43.3,154.4 80.3,140.7 	"/>
	<polygon fill="#6E6E6E" points="60.1,130.1 25.1,138.8 43.3,154.4 	"/>
	<polygon fill="#929292" points="58,70.8 50.1,95.2 81.6,75 	"/>
	<polygon fill="#555555" points="-112.7,26.1 -131.8,3.5 -128.6,42.3 	"/>
	<polygon fill="#6E6E6E" points="39.3,118.1 25.1,138.8 60.1,130.1 	"/>
	<polygon fill="#666666" points="14.7,-105.4 49,-89.5 43.3,-112.8 	"/>
	<polygon fill="#B1B1B1" points="72.7,-116.8 102.3,-116.1 70.6,-139.5 	"/>
	<polygon fill="#9D9D9D" points="43.3,-112.8 72.7,-116.8 38.2,-135 	"/>
	<polygon fill="#898989" points="72.7,-116.8 99.3,-92.3 102.3,-116.1 	"/>
	<polygon fill="#959595" points="-96.3,8.6 -112.6,-10.9 -112.7,26.1 	"/>
	<polygon fill="#5C5C5C" points="-131.8,3.5 -147.5,-21.6 -149.8,17.6 	"/>
	<polygon fill="#888888" points="74.2,-92.8 99.3,-92.3 72.7,-116.8 	"/>
	<polygon fill="#929292" points="72.7,103.3 60.1,130.1 94.2,110.8 	"/>
	<polygon fill="#939393" points="81.6,75 50.1,95.2 72.7,103.3 	"/>
	<polygon fill="#7D7D7D" points="49,-89.5 74.2,-92.8 43.3,-112.8 	"/>
	<polygon fill="#9A9A9A" points="-112.6,-10.9 -126,-32.3 -131.8,3.5 	"/>
	<polygon fill="#808080" points="50.1,95.2 39.3,118.1 72.7,103.3 	"/>
	<polygon fill="#9A9A9A" points="-131.8,3.5 -126,-32.3 -147.5,-21.6 	"/>
	<polygon fill="#979797" points="-112.7,26.1 -112.6,-10.9 -131.8,3.5 	"/>
	<polygon fill="#808080" points="72.7,103.3 39.3,118.1 60.1,130.1 	"/>
	<polygon fill="#7B7B7B" points="43.3,-112.8 74.2,-92.8 72.7,-116.8 	"/>
</g>
</svg>
