<?xml version="1.0" encoding="utf-8"?>
<!-- Generator: Adobe Illustrator 17.1.0, SVG Export Plug-In . SVG Version: 6.00 Build 0)  -->
<!DOCTYPE svg PUBLIC "-//W3C//DTD SVG 1.1//EN" "http://www.w3.org/Graphics/SVG/1.1/DTD/svg11.dtd">
<svg version="1.1" id="Layer_1" xmlns="http://www.w3.org/2000/svg" xmlns:xlink="http://www.w3.org/1999/xlink" x="0px" y="0px"
	 width="600px" height="800px" viewBox="0 0 600 800" style="enable-background:new 0 0 600 800;" xml:space="preserve">
<path style="fill:none;stroke:#000000;stroke-miterlimit:10;" d="M299.7996,600.3996c-110.4569,0-200-89.5431-200-200
	c0-110.236,89.364-199.6,199.6-199.6c110.0156,0,199.2008,89.1852,199.2008,199.2008c0,109.7955-89.0069,198.8024-198.8024,198.8024
	c-109.5759,0-198.4048-88.8289-198.4048-198.4048c0-109.3568,88.6512-198.008,198.008-198.008
	c109.1381,0,197.612,88.4739,197.612,197.612c0,108.9198-88.2969,197.2168-197.2167,197.2168
	c-108.702,0-196.8223-88.1204-196.8223-196.8223c0-108.4846,87.9441-196.4287,196.4287-196.4287
	c108.2676,0,196.0358,87.7682,196.0358,196.0358c0,108.0511-87.5927,195.6437-195.6437,195.6437
	c-107.8349,0-195.2524-87.4175-195.2524-195.2524c0-107.6193,87.2427-194.862,194.8619-194.862
	c107.4041,0,194.4722,87.0682,194.4722,194.4722c0,107.1892-86.894,194.0833-194.0833,194.0833
	c-106.9749,0-193.6951-86.7202-193.6951-193.6951c0-106.7609,86.5468-193.3077,193.3077-193.3077
	c106.5474,0,192.9211,86.3737,192.9211,192.9211c0,106.3343-86.201,192.5352-192.5352,192.5352
	c-106.1216,0-192.1502-86.0286-192.1502-192.1502c0-105.9094,85.8565-191.7659,191.7659-191.7659
	c105.6975,0,191.3824,85.6848,191.3824,191.3824c0,105.4862-85.5134,190.9996-190.9996,190.9996
	c-105.2752,0-190.6176-85.3424-190.6176-190.6176c0-105.0646,85.1717-190.2364,190.2364-190.2364
	c104.8545,0,189.8559,85.0014,189.8559,189.8559c0,104.6448-84.8314,189.4762-189.4762,189.4762
	c-104.4355,0-189.0972-84.6617-189.0972-189.0972c0-104.2267,84.4924-188.719,188.719-188.719
	c104.0182,0,188.3416,84.3234,188.3416,188.3416c0,103.8102-84.1548,187.9649-187.9649,187.9649
	c-103.6025,0-187.589-83.9865-187.589-187.589c0-103.3953,83.8185-187.2138,187.2138-187.2138
	c103.1885,0,186.8394,83.6508,186.8394,186.8394c0,102.9822-83.4836,186.4657-186.4657,186.4657
	c-102.7762,0-186.0928-83.3166-186.0928-186.0928c0-102.5706,83.1499-185.7206,185.7206-185.7206
	c102.3655,0,185.3491,82.9836,185.3491,185.3491c0,102.1608-82.8177,184.9784-184.9784,184.9784
	c-101.9565,0-184.6085-82.652-184.6085-184.6085c0-101.7525,82.4867-184.2393,184.2393-184.2393
	c101.549,0,183.8708,82.3218,183.8708,183.8708c0,101.3459-82.1571,183.5031-183.503,183.5031
	c-101.1432,0-183.136-81.9928-183.136-183.1361c0-100.9409,81.8288-182.7697,182.7698-182.7697
	c100.739,0,182.4042,81.6652,182.4042,182.4042c0,100.5376-81.5018,182.0395-182.0394,182.0395
	c-100.3365,0-181.6754-81.3388-181.6754-181.6754c0-100.1359,81.1761-181.312,181.312-181.312
	c99.9356,0,180.9494,81.0138,180.9494,180.9494c0,99.7357-80.8517,180.5875-180.5875,180.5875
	c-99.5362,0-180.2263-80.6901-180.2263-180.2263c0-99.3372,80.5287-179.8658,179.8658-179.8658
	c99.1385,0,179.5061,80.3676,179.5061,179.5061c0,98.9402-80.2069,179.1471-179.1471,179.1471
	c-98.7423,0-178.7888-80.0464-178.7888-178.7888c0-98.5448,79.8864-178.4312,178.4312-178.4312
	c98.3477,0,178.0743,79.7266,178.0743,178.0743c0,98.1511-79.5671,177.7182-177.7182,177.7182
	c-97.9548,0-177.3628-79.408-177.3628-177.3628c0-97.7589,79.2492-177.008,177.008-177.008
	c97.5634,0,176.6541,79.0907,176.6541,176.654c0,97.3682-78.9325,176.3007-176.3007,176.3007
	c-97.1735,0-175.9481-78.7747-175.9481-175.9481c0-96.9791,78.6171-175.5962,175.5962-175.5962
	c96.7852,0,175.245,78.4599,175.245,175.245c0,96.5916-78.3029,174.8945-174.8945,174.8945
	c-96.3984,0-174.5448-78.1463-174.5448-174.5447c0-96.2056,77.9901-174.1957,174.1957-174.1957
	c96.0132,0,173.8473,77.8341,173.8473,173.8473c0,95.8212-77.6784,173.4996-173.4996,173.4996
	c-95.6295,0-173.1526-77.523-173.1526-173.1526c0-95.4383,77.368-172.8063,172.8063-172.8063
	c95.2474,0,172.4607,77.2133,172.4607,172.4606c0,95.0569-77.0588,172.1158-172.1158,172.1158
	c-94.8668,0-171.7715-76.9047-171.7715-171.7715c0-94.6771,76.7509-171.428,171.428-171.428
	c94.4877,0,171.0851,76.5974,171.0851,171.0851c0,94.2987-76.4442,170.743-170.743,170.743
	c-94.1101,0-170.4014-76.2914-170.4014-170.4015c0-93.9219,76.1387-170.0606,170.0607-170.0606
	c93.7341,0,169.7205,75.9865,169.7205,169.7205c0,93.5466-75.8345,169.3811-169.3811,169.3811
	c-93.3595,0-169.0423-75.6828-169.0423-169.0423c0-93.1728,75.5315-168.7043,168.7042-168.7043
	c92.9865,0,168.3669,75.3804,168.3669,168.3668c0,92.8005-75.2296,168.0301-168.0301,168.0301
	c-92.6149,0-167.694-75.0792-167.694-167.6941c0-92.4296,74.929-167.3586,167.3587-167.3586
	c92.2448,0,167.0239,74.7792,167.0239,167.0239c0,92.0603-74.6296,166.6899-166.6899,166.6899
	c-91.8762,0-166.3565-74.4803-166.3565-166.3565c0-91.6924,74.3314-166.0238,166.0238-166.0238
	c91.509,0,165.6917,74.1827,165.6917,165.6917c0,91.326-74.0343,165.3604-165.3604,165.3604
	c-91.1434,0-165.0296-73.8863-165.0296-165.0297c0-90.9611,73.7385-164.6996,164.6996-164.6996
	c90.7791,0,164.3702,73.591,164.3702,164.3702c0,90.5976-73.4438,164.0414-164.0414,164.0414
	c-90.4164,0-163.7134-73.297-163.7134-163.7133c0-90.2356,73.1504-163.3859,163.3859-163.3859
	c90.0551,0,163.0591,73.0041,163.0591,163.0591c0,89.875-72.8581,162.7331-162.733,162.7331
	c-89.6952,0-162.4076-72.7123-162.4076-162.4076c0-89.5158,72.5669-162.0827,162.0827-162.0827
	c89.3368,0,161.7586,72.4218,161.7586,161.7586c0,89.1581-72.2769,161.4351-161.4351,161.4351
	c-88.9798,0-161.1122-72.1324-161.1122-161.1122c0-88.8018,71.9881-160.79,160.79-160.79
	c88.6242,0,160.4684,71.8442,160.4684,160.4684c0,88.447-71.7005,160.1475-160.1475,160.1475
	c-88.2701,0-159.8272-71.557-159.8272-159.8271c0-88.0936,71.4139-159.5075,159.5075-159.5075
	c87.9174,0,159.1885,71.2711,159.1885,159.1885c0,87.7415-71.1286,158.8701-158.8701,158.8701
	c-87.5661,0-158.5524-70.9863-158.5524-158.5524c0-87.3909,70.8443-158.2353,158.2353-158.2353
	c87.2161,0,157.9188,70.7027,157.9188,157.9188c0,87.0417-70.5612,157.603-157.603,157.603
	c-86.8676,0-157.2878-70.4201-157.2878-157.2878c0-86.6939,70.2793-156.9732,156.9732-156.9732
	c86.5205,0,156.6592,70.1387,156.6592,156.6592c0,86.3475-69.9984,156.3459-156.3459,156.3459
	c-86.1748,0-156.0332-69.8585-156.0332-156.0332c0-86.0024,69.7188-155.7212,155.7212-155.7212
	c85.8304,0,155.4097,69.5793,155.4097,155.4097c0,85.6588-69.4402,155.0989-155.0989,155.0989
	c-85.4874,0-154.7887-69.3013-154.7887-154.7887c0-85.3165,69.1627-154.4791,154.4791-154.4791
	c85.1458,0,154.1702,69.0243,154.1702,154.1702c0,84.9755-68.8863,153.8618-153.8618,153.8618
	c-84.8056,0-153.5541-68.7485-153.5541-153.5541c0-84.636,68.611-153.247,153.247-153.247
	c84.4667,0,152.9405,68.4738,152.9405,152.9405c0,84.2978-68.3369,152.6346-152.6346,152.6346
	c-84.1292,0-152.3294-68.2002-152.3294-152.3293c0-83.9609,68.0638-152.0247,152.0247-152.0247
	c83.793,0,151.7206,67.9277,151.7206,151.7207c0,83.6254-67.7918,151.4172-151.4172,151.4172
	c-83.4582,0-151.1144-67.6562-151.1144-151.1144c0-83.2912,67.5209-150.8121,150.8121-150.8121
	c83.1247,0,150.5105,67.3859,150.5105,150.5105c0,82.9584-67.2511,150.2095-150.2095,150.2095
	c-82.7925,0-149.9091-67.1166-149.9091-149.9091c0-82.6269,66.9823-149.6093,149.6093-149.6093
	c82.4617,0,149.3101,66.8484,149.3101,149.31c0,82.2967-66.7147,149.0114-149.0114,149.0114
	c-82.1321,0-148.7134-66.5812-148.7134-148.7134c0-81.9679,66.4481-148.416,148.416-148.416
	c81.804,0,148.1191,66.3152,148.1191,148.1191c0,81.6403-66.1826,147.8229-147.8229,147.8229
	c-81.477,0-147.5273-66.0502-147.5273-147.5273c0-81.3141,65.9181-147.2322,147.2322-147.2322
	c81.1515,0,146.9377,65.7863,146.9377,146.9377c0,80.9892-65.6547,146.6439-146.6439,146.6439
	c-80.8272,0-146.3506-65.5234-146.3506-146.3506c0-80.6655,65.3923-146.0579,146.0579-146.0579
	c80.5042,0,145.7657,65.2616,145.7657,145.7658c0,80.3432-65.131,145.4742-145.4742,145.4742
	c-80.1825,0-145.1833-65.0008-145.1833-145.1833c0-80.0222,64.8708-144.8929,144.8929-144.8929
	c79.8621,0,144.6031,64.741,144.6031,144.6031c0,79.7024-64.6115,144.3139-144.3139,144.3139
	c-79.543,0-144.0253-64.4823-144.0253-144.0253c0-79.3839,64.3534-143.7372,143.7373-143.7372
	c79.2251,0,143.4498,64.2246,143.4498,143.4498c0,79.0667-64.0962,143.1628-143.1629,143.1628
	c-78.9085,0-142.8766-63.968-142.8766-142.8765c0-78.7507,63.8401-142.5908,142.5908-142.5908
	c78.5932,0,142.3056,63.7124,142.3056,142.3056c0,78.436-63.585,142.021-142.021,142.021
	c-78.2791,0-141.7369-63.4578-141.7369-141.737c0-78.1226,63.3309-141.4535,141.4535-141.4535
	c77.9664,0,141.1706,63.2042,141.1706,141.1706c0,77.8104-63.0778,140.8882-140.8882,140.8882
	c-77.6548,0-140.6064-62.9517-140.6064-140.6064c0-77.4995,62.8257-140.3253,140.3252-140.3253
	c77.3445,0,140.0446,62.7001,140.0446,140.0446c0,77.1898-62.5747,139.7645-139.7645,139.7645
	c-77.0354,0-139.485-62.4495-139.485-139.485c0-76.8813,62.3247-139.206,139.206-139.206c76.7276,0,138.9276,62.2,138.9276,138.9276
	c0,76.5741-62.0756,138.6497-138.6497,138.6497c-76.421,0-138.3724-61.9514-138.3724-138.3724
	c0-76.2682,61.8275-138.0957,138.0957-138.0957c76.1156,0,137.8195,61.7039,137.8195,137.8195
	c0,75.9634-61.5805,137.5439-137.5439,137.5439c-75.8115,0-137.2688-61.4573-137.2688-137.2688
	c0-75.6599,61.3344-136.9943,136.9942-136.9943c75.5085,0,136.7202,61.2118,136.7202,136.7202
	c0,75.3575-61.0893,136.4468-136.4468,136.4468c-75.2068,0-136.1739-60.9672-136.1739-136.1739
	c0-75.0564,60.8452-135.9016,135.9016-135.9016c74.9062,0,135.6298,60.7235,135.6298,135.6298
	c0,74.7564-60.6021,135.3585-135.3585,135.3585c-74.6069,0-135.0878-60.4809-135.0878-135.0878
	c0-74.4577,60.3599-134.8176,134.8176-134.8176c74.3088,0,134.548,60.2392,134.548,134.548
	c0,74.1602-60.1187,134.2789-134.2789,134.2789c-74.0119,0-134.0103-59.9985-134.0103-134.0103
	c0-73.8638,59.8785-133.7423,133.7423-133.7423c73.7161,0,133.4748,59.7587,133.4748,133.4748
	c0,73.5687-59.6392,133.2079-133.2079,133.2079c-73.4216,0-132.9415-59.5199-132.9415-132.9414
	c0-73.2747,59.4009-132.6756,132.6756-132.6756c73.1281,0,132.4102,59.2821,132.4102,132.4102
	c0,72.9819-59.1635,132.1454-132.1454,132.1454c-72.8359,0-131.8811-59.0452-131.8811-131.8811
	c0-72.6902,58.9271-131.6173,131.6174-131.6173c72.5449,0,131.3541,58.8092,131.3541,131.3541
	c0,72.3998-58.6916,131.0914-131.0914,131.0914c-72.255,0-130.8292-58.5742-130.8292-130.8292
	c0-72.1105,58.4571-130.5676,130.5676-130.5676c71.9662,0,130.3064,58.3402,130.3064,130.3064
	c0,71.8223-58.2235,130.0458-130.0458,130.0458c-71.6787,0-129.7857-58.1071-129.7857-129.7857
	c0-71.5353,57.9908-129.5262,129.5261-129.5262c71.3922,0,129.2671,57.8749,129.2671,129.2671
	c0,71.2495-57.7591,129.0086-129.0086,129.0086c-71.107,0-128.7505-57.6436-128.7505-128.7506
	c0-70.9648,57.5283-128.493,128.493-128.493c70.8228,0,128.2361,57.4132,128.2361,128.2361
	c0,70.6812-57.2984,127.9796-127.9796,127.9796c-70.5398,0-127.7236-57.1838-127.7236-127.7236
	c0-70.3987,57.0694-127.4682,127.4682-127.4682c70.2579,0,127.2132,56.9553,127.2132,127.2133
	c0,70.1174-56.8414,126.9588-126.9588,126.9588c-69.9772,0-126.7049-56.7277-126.7049-126.7049
	c0-69.8372,56.6143-126.4515,126.4515-126.4515c69.6975,0,126.1986,56.501,126.1986,126.1986
	c0,69.5582-56.388,125.9462-125.9462,125.9462c-69.4191,0-125.6943-56.2753-125.6943-125.6943
	c0-69.2802,56.1627-125.4429,125.4429-125.4429c69.1416,0,125.192,56.0504,125.192,125.192
	c0,69.0034-55.9383,124.9417-124.9416,124.9417c-68.8654,0-124.6918-55.8264-124.6918-124.6918
	c0-68.7276,55.7148-124.4424,124.4424-124.4424c68.5902,0,124.1935,55.6033,124.1935,124.1935
	c0,68.453-55.4921,123.9451-123.9451,123.9451c-68.3161,0-123.6972-55.3811-123.6972-123.6972
	c0-68.1794,55.2704-123.4498,123.4498-123.4498c68.0431,0,123.2029,55.1598,123.2029,123.2029
	c0,67.907-55.0495,122.9565-122.9565,122.9565c-67.7712,0-122.7106-54.9394-122.7106-122.7106
	c0-67.6356,54.8295-122.4651,122.4652-122.4651c67.5004,0,122.2202,54.7198,122.2202,122.2202
	c0,67.3654-54.6104,121.9758-121.9758,121.9758c-67.2306,0-121.7318-54.5012-121.7318-121.7318
	c0-67.0962,54.3922-121.4884,121.4884-121.4884c66.962,0,121.2454,54.2834,121.2454,121.2454
	c0,66.8281-54.1748,121.0029-121.0029,121.0029c-66.6944,0-120.7609-54.0665-120.7609-120.7609
	c0-66.561,53.9584-120.5194,120.5194-120.5194c66.4279,0,120.2784,53.8505,120.2784,120.2784
	c0,66.295-53.7428,120.0378-120.0378,120.0378c-66.1625,0-119.7977-53.6353-119.7977-119.7977
	c0-66.0301,53.528-119.5581,119.5581-119.5581c65.8981,0,119.319,53.421,119.319,119.319
	c0,65.7663-53.3141,119.0804-119.0804,119.0804c-65.6348,0-118.8422-53.2075-118.8422-118.8422
	c0-65.5035,53.1011-118.6045,118.6045-118.6045c65.3725,0,118.3673,52.9948,118.3673,118.3673
	c0,65.2417-52.8889,118.1306-118.1306,118.1306c-65.1112,0-117.8943-52.7831-117.8943-117.8943
	c0-64.981,52.6775-117.6585,117.6585-117.6585c64.851,0,117.4232,52.5721,117.4232,117.4232
	c0,64.7213-52.467,117.1884-117.1884,117.1884c-64.5919,0-116.954-52.3621-116.954-116.954
	c0-64.4627,52.2574-116.7201,116.7201-116.7201c64.3338,0,116.4866,52.1529,116.4866,116.4866
	c0,64.2051-52.0485,116.2537-116.2537,116.2537c-64.0767,0-116.0212-51.9445-116.0212-116.0212
	c0-63.9485,51.8406-115.7891,115.7891-115.7891c63.8207,0,115.5576,51.7369,115.5576,115.5576
	c0,63.693-51.6334,115.3264-115.3264,115.3264c-63.5657,0-115.0958-51.5301-115.0958-115.0958
	c0-63.4385,51.4271-114.8656,114.8656-114.8656c63.3116,0,114.6358,51.3242,114.6358,114.6359
	c0,63.185-51.2216,114.4066-114.4066,114.4066c-63.0586,0-114.1777-51.1192-114.1777-114.1778
	c0-62.9325,51.0169-113.9494,113.9494-113.9494c62.8066,0,113.7215,50.9149,113.7215,113.7215
	c0,62.6811-50.813,113.4941-113.494,113.4941c-62.5557,0-113.2671-50.7114-113.2671-113.2671
	c0-62.4306,50.61-113.0406,113.0405-113.0406c62.3057,0,112.8145,50.5088,112.8145,112.8145
	c0,62.1811-50.4077,112.5888-112.5888,112.5888c-62.0567,0-112.3637-50.3069-112.3637-112.3636
	c0-61.9326,50.2063-112.1389,112.1389-112.1389c61.8087,0,111.9147,50.1059,111.9147,111.9146
	c0,61.6852-50.0057,111.6908-111.6909,111.6908c-61.5618,0-111.4674-49.9057-111.4674-111.4674
	c0-61.4387,49.8059-111.2445,111.2445-111.2445c61.3158,0,111.022,49.7062,111.022,111.022c0,61.1931-49.6068,110.8-110.8,110.8
	c-61.0707,0-110.5784-49.5076-110.5784-110.5784c0-60.9486,49.4086-110.3572,110.3572-110.3572
	c60.8267,0,110.1365,49.3098,110.1365,110.1365c0,60.705-49.2112,109.9162-109.9162,109.9162
	c-60.5836,0-109.6964-49.1128-109.6964-109.6964c0-60.4625,49.0145-109.477,109.477-109.477
	c60.3416,0,109.2581,48.9165,109.2581,109.2581c0,60.2209-48.8187,109.0396-109.0395,109.0396
	c-60.1004,0-108.8215-48.721-108.8215-108.8215c0-59.9802,48.6236-108.6038,108.6038-108.6038
	c59.8603,0,108.3866,48.5264,108.3866,108.3866c0,59.7405-48.4293,108.1698-108.1698,108.1698
	c-59.6211,0-107.9535-48.3324-107.9535-107.9535c0-59.5018,48.2358-107.7376,107.7376-107.7376
	c59.3828,0,107.5221,48.1393,107.5221,107.5221c0,59.2641-48.043,107.3071-107.3071,107.3071
	c-59.1455,0-107.0925-47.9469-107.0925-107.0924c0-59.0273,47.851-106.8783,106.8783-106.8783
	c58.9092,0,106.6645,47.7553,106.6645,106.6645c0,58.7914-47.6598,106.4512-106.4512,106.4512
	c-58.6738,0-106.2383-47.5645-106.2383-106.2383c0-58.5565,47.4694-106.0258,106.0258-106.0258
	c58.4393,0,105.8138,47.3744,105.8138,105.8138c0,58.3224-47.2797,105.6021-105.6021,105.6021
	c-58.2058,0-105.3909-47.1851-105.3909-105.3909c0-58.0894,47.0908-105.1801,105.1801-105.1801
	c57.9732,0,104.9698,46.9966,104.9698,104.9698c0,57.8573-46.9026,104.7598-104.7599,104.7598
	c-57.7415,0-104.5503-46.8088-104.5503-104.5503c0-57.626,46.7151-104.3412,104.3412-104.3412
	c57.5108,0,104.1325,46.6217,104.1325,104.1325c0,57.3958-46.5285,103.9243-103.9243,103.9243
	c-57.281,0-103.7164-46.4354-103.7164-103.7164c0-57.1664,46.3426-103.509,103.509-103.509
	c57.0521,0,103.302,46.2499,103.302,103.302c0,56.938-46.1574,103.0954-103.0954,103.0954
	c-56.8241,0-102.8892-46.0651-102.8892-102.8892c0-56.7105,45.9729-102.6834,102.6834-102.6834
	c56.597,0,102.478,45.881,102.478,102.4781c0,56.4839-45.7892,102.2731-102.2731,102.2731
	c-56.3709,0-102.0685-45.6976-102.0685-102.0685c0-56.2581,45.6062-101.8644,101.8644-101.8644
	c56.1456,0,101.6606,45.515,101.6606,101.6606c0,56.0334-45.424,101.4574-101.4573,101.4574
	c-55.9213,0-101.2544-45.3332-101.2544-101.2545c0-55.8094,45.2425-101.0519,101.0519-101.0519
	c55.6978,0,100.8498,45.152,100.8498,100.8498c0,55.5864-45.0617,100.6481-100.6481,100.6481
	c-55.4753,0-100.4468-44.9716-100.4468-100.4468c0-55.3643,44.8816-100.2459,100.2459-100.2459
	c55.2536,0,100.0454,44.7919,100.0454,100.0454c0,55.1431-44.7023,99.8453-99.8454,99.8453
	c-55.0328,0-99.6456-44.6129-99.6456-99.6456c0-54.9227,44.5237-99.4464,99.4464-99.4464c54.8129,0,99.2475,44.4346,99.2475,99.2475
	c0,54.7032-44.3457,99.049-99.049,99.049c-54.5938,0-98.8509-44.257-98.8509-98.8509c0-54.4846,44.1685-98.6532,98.6532-98.6532
	c54.3757,0,98.4559,44.0802,98.4559,98.4559c0,54.2669-43.992,98.259-98.259,98.259c-54.1584,0-98.0624-43.9041-98.0624-98.0624
	c0-54.0501,43.8162-97.8663,97.8663-97.8663c53.942,0,97.6706,43.7286,97.6706,97.6706c0,53.8341-43.6411,97.4753-97.4752,97.4753
	c-53.7264,0-97.2803-43.5539-97.2803-97.2803c0-53.619,43.4668-97.0857,97.0857-97.0857c53.5117,0,96.8916,43.3798,96.8916,96.8916
	c0,53.4047-43.2931,96.6978-96.6978,96.6978c-53.2979,0-96.5044-43.2065-96.5044-96.5044c0-53.1913,43.1201-96.3114,96.3114-96.3114
	c53.0849,0,96.1187,43.0338,96.1187,96.1187c0,52.9788-42.9478,95.9265-95.9265,95.9265c-52.8728,0-95.7347-42.8619-95.7347-95.7346
	c0-52.7671,42.7762-95.5432,95.5432-95.5432c52.6615,0,95.3521,42.6906,95.3521,95.3521c0,52.5562-42.6052,95.1614-95.1614,95.1614
	c-52.4511,0-94.9711-42.52-94.9711-94.9711c0-52.3462,42.435-94.7812,94.7811-94.7812c52.2415,0,94.5916,42.3501,94.5916,94.5916
	c0,52.137-42.2654,94.4024-94.4024,94.4024c-52.0327,0-94.2136-42.1808-94.2136-94.2136c0-51.9287,42.0965-94.0252,94.0252-94.0252
	c51.8248,0,93.8371,42.0123,93.8371,93.8371c0,51.7211-41.9283,93.6494-93.6494,93.6494c-51.6177,0-93.4621-41.8444-93.4621-93.4621
	c0-51.5145,41.7607-93.2752,93.2752-93.2752c51.4114,0,93.0887,41.6772,93.0887,93.0887c0,51.3086-41.5938,92.9025-92.9025,92.9025
	c-51.206,0-92.7167-41.5107-92.7167-92.7167c0-51.1036,41.4276-92.5312,92.5312-92.5312c51.0014,0,92.3462,41.3448,92.3462,92.3462
	c0,50.8994-41.2621,92.1615-92.1615,92.1615c-50.7976,0-91.9772-41.1796-91.9772-91.9772c0-50.696,41.0972-91.7932,91.7932-91.7932
	c50.5946,0,91.6096,41.015,91.6096,91.6096c0,50.4934-40.933,91.4264-91.4264,91.4264c-50.3924,0-91.2435-40.8511-91.2435-91.2436
	c0-50.2916,40.7694-91.0611,91.0611-91.0611c50.191,0,90.8789,40.6879,90.8789,90.879c0,50.0907-40.6065,90.6972-90.6972,90.6972
	c-49.9905,0-90.5158-40.5253-90.5158-90.5158c0-49.8905,40.4443-90.3348,90.3347-90.3348c49.7907,0,90.1541,40.3634,90.1541,90.1541
	c0,49.6912-40.2827,89.9738-89.9738,89.9738"/>
</svg>
